<?xml version="1.0" encoding="utf-8"?>
<!-- Generator: Adobe Illustrator 26.2.1, SVG Export Plug-In . SVG Version: 6.00 Build 0)  -->
<svg version="1.1" id="Layer_1" xmlns="http://www.w3.org/2000/svg" xmlns:xlink="http://www.w3.org/1999/xlink" x="0px" y="0px"
	 viewBox="0 0 6179 4128" style="enable-background:new 0 0 6179 4128;" xml:space="preserve">
<style type="text/css">
	.st0{fill:#3E3D3E;}
	.st1{fill:#373636;}
</style>
<g>
	<path class="st0" d="M5896.5,3166.2c-12.2-5.2-23.4-3.1-36.1-1.3c-73.7,13.8-290.3,61.2-333.5,124.9c-5.2,7.7-8.6,17.6-6.9,26.9
		c5,26.4,61,35,45.4,62.2c-14.5,25.2-74.3,38.6-102,44.8c-64.4,14.4-250.1,32.9-284.9,92c-1.7,2.9-2.4,5.9-3.2,9.1l2.8,6.7
		c5.5,1.4,7.5,2.6,12.7-0.3c3.9-2.2,8.2-7.6,10.4-11.5c34.4-20.9,69.6-35.5,108.6-45.5c53.9-13.8,267.8-31,281.4-97.7
		c2-9.6-0.2-19.4-5.7-27.4c-11-16.2-48.7-25.2-46.8-44.2c34.8-52.2,225-100.1,287.2-112.7c23.5-4.8,60.1-5.8,80.3-17.6
		C5903.9,3168.6,5902.4,3168.7,5896.5,3166.2z"/>
	<path class="st0" d="M5929.5,2466c-189.9,103.2-354.1,241-499.4,400.7c-20.9,23-59.3,57.6-67.5,87.7c-1.4,4.9-1.5,13,1.2,17.5
		c5.6,9.1,12.5,12.3,22.7,14.5c43.5,9.4,150.7-20.7,179.7,14.3c2.9,11.1,2.2,16.9-4,27.2c-15.2,25.3-45.7,48.1-69.4,65.6
		c-201.3,147.7-440.2,160.9-660.4,254.9c-118.9,50.7-212.5,139.2-326.3,198.9c-213.3,111.7-477.6,143.5-636.4,340.9
		c-10.6,13.2-35.4,41.4-32.3,57.6c4.1,2.7,7.5,5.2,12.4,6.1c22.3-33.8,45.4-65.8,74.5-94.2c157.6-153.9,418.6-197.7,612.4-300.5
		c112.4-59.6,201.9-148.1,322-195.6c208.1-82.2,419.5-99,615-229c39.9-26.5,126.3-82.5,113-138.7c-1.9-8.3-7.7-14.2-15-18.3
		c-50.2-28.4-154.7,7.8-187-12c-1.9-7.7-0.4-9.5,3.8-16.4c14.5-23.6,37.3-45.3,56.2-65.7c106.8-115.7,228.7-226.9,359.1-315.2
		c32.3-21.9,119.3-62.2,140-86.9c2-2.4,1.3-4.4,1.3-7.3C5938.6,2465.8,5937.9,2466.6,5929.5,2466z"/>
	<path class="st1" d="M6038.5,1710.4c-23.2-2.5-79.4,46.7-101.5,61.9c-32.4,22.3-65.2,46.7-101.7,61.9c-24.1,10-50.1,16-75.1,23.2
		c-49,14.2-97.8,31.6-141.5,58.2c-36.2,21.9-68.6,49-100.6,76.5c-25.1,21.6-52,48.9-81.7,63.5c-0.8,0.4-1.5,0.7-2.3,1.1
		c-11.5-10.1-25.9-17.6-38.7-26.1c-34-22.4-74.1-47.9-102.3-76.9c-40.3-41.4-57.3-99.5-102-137.6c-47.8-40.7-112.2-55.7-155.6-102.5
		c-31.8-34.4-52.5-77.7-78.3-116.5c-32-48-105.7-130.3-159.7-151.2c-1.9,2.4-3.7,4.6-6,6.7c-34.2,32.2-78.4,64.1-127.5,61.7
		c-7.6-0.4-20.2-2.3-26.2-7.1c-13-10.2-47.1-78.7-58.7-97.3c-26.4-42.3-59.8-81.8-82.3-126.3c-8.6-16.9-9.7-35.6-15.1-53.8
		c-5.5-18.5-13.4-36.3-21-54c-53.5-125.3-121-261.9-196.7-375.5c-25-37.5-51.4-74.9-83.5-106.7c-25.9-25.6-56.3-48.5-78.9-77.2
		c-24.9-31.5-33-72.8-59.2-103.4c-25.1-29.3-64.7-41-95.8-62.5c-33.2-23-57.7-50.7-84.4-80.5c-20.9-23.4-83.3-90.6-113.2-92.4
		c-39.2,17.8-240.6,300.4-270.3,349.7c-16.6,27.6-33,56.3-46.8,85.4c-14.7,31.2-26.2,64.7-46.2,93c-12.4,17.5-28.8,32.5-44,47.5
		c-3-5.7-5.9-11.8-9.5-17.1c-4.8-7.1-8.7-9.5-17-11.4c-29.5,5.1-46.2,63.2-58,87c-8,16.1-17.2,30.9-27.7,45.5
		c-8.8-13.5-14.4-34.3-28.7-42.4c-2.6,0.4-3.9,0.5-6.2,1.3c-33,11.6-52.1,100.4-70,130.4c-19.1,32-59.3,34.7-76.3,68.8
		c-19.9,40-25.5,87.4-40.7,129.5c-21.7,60.3-51.5,116.1-77.4,174.5c-12.5-21-41.4-64.7-63.6-74.9c-24.8,15.7-67.7,132.7-98.3,166.2
		c-52.1,57.1-174.1,48.8-220.5,102c-40.2,46.1-64.1,111.1-97.9,162.7c-33.9,51.7-77,90-105,146.7c-12.7,25.6-24.8,51.5-36.2,77.7
		c-13.1,30.9-24.3,69.7-43.6,96.8c-4.7,6.6-12.1,11.4-18.8,15.8c-9.6-5.7-21.3-14.4-32.5-16c-45-6.6-121.5,193.6-148.3,234.5
		c-15,23-37,41.9-59,57.9c-14,10.1-45,36.2-62.4,33.4c-5.9-5.4-13.9-13.6-22.3-13.7c-30.6-0.5-109.1,85.2-132.8,108.1
		c-41.6-29.1-73-62.8-108.9-98.2c-44.7,22.7-88.7,63.6-128.6,94.3c-58.8,45.2-118.7,89-176.8,135.1c-14.7-12.5-40-47-59.5-48
		c-18.4-0.9-38.4,22.7-51.1,34.2c-91.6-46.7-169.8-128.4-244-198.2c-24.5,13.7-46.3,32.6-68.3,49.9c-56.2-40.2-109.1-86-166.3-124.2
		c-59.7,41.2-103.4,105.3-167.8,139.5c-17.6-7.4-35.4-14.3-53.3-20.7c-72.6,71.4-158.5,131.2-256.3,160.9
		c-31.8-17.6-117.6-61.5-151.9-54.3c-6.7,5.8-6.1,6-7.2,14.3c1.1,2.7,2,4.9,4.2,7c15.8,15.6,179,93.4,204.3,98.9
		c34.9,7.6,72.2,5.9,107.8,5.8c72.9,79.8,151.9,168.1,245.3,223.7c-90.1-9.8-194.1-17.2-276.7-56.5c-56.4-26.9-94.1-73.4-139.9-114
		c-23.6-20.9-50-38.8-76.6-55.6c-20.3-12.8-40.6-25.1-64.1-30.8l-1.9,3c1.8,2.6,3.7,4.9,5.8,7.3c25.6,29,78,54.7,110.4,81.3
		c44.4,36.5,82.3,81.1,130.3,113.2c80.3,53.7,294.5,73.3,392.7,79c33.5,24.7,49.9,62.9,70.7,97.8c39.2,65.7,85.9,125.3,152,165.8
		c74.3,45.6,160.2,72.7,242.8,99.2c217.1,69.5,442.3,129.7,609.4,294c-55.8-92.8-123.6-193.1-210-259.8
		c-57-44-106.6-65.7-154.5-124.1c14.2,9.1,28.5,16.5,43.8,23.5c-22.3-33.2-56.3-52.8-78-88.4c17.1,3.1,48.3,10.2,64.6,2
		c6.1-3.1,8.7-6.8,10.3-13.2c3-12.6-9.1-28.5-15.1-39.1c55.1,21.4,102,42.2,150.8,76.2c19.7,13.7,38,29.9,57.8,43.2
		c6.3,4.3,9.8,5.8,17.2,4.1c10.1-18.3,3.9-51.7,2.6-72.2c16.3,19.7,33.2,38.9,50.6,57.5l6.4,0.3c4.2,5.2,8.3,10.1,13.3,14.6
		c3.5-2.4,6.3-4.9,9.3-7.9c17,4.1,30.4,29.6,41.4,42.6c20.7,24.5,70.6,53.5,84.3,70.2c44.9,20.4,101.9,50.4,150.8,57.5
		c16,2.3,32.7-0.7,48.8,1c11.6,1.3,21.8,7.2,33.5,8c29.9,2,104.1-16,126.4-2c1.4,0.9,2.9,1.6,4.4,2.4l3.4,1.9l-7.6-3.3
		c-3.3,2.7-6.5,5.4-10.1,7.7c33.3,6.3,50.8,67.7,82.7,81.1c-4.1-5-12.5-13-12.8-19.5l4-1.2c27.4,23.2,54.6,46.8,82.6,69.3
		c23,18.5,125.1,93.4,136,109.1l-1.5,4.9c-3.2,0.7-5.7,1.2-9,1c4.8,5.1,7,6.3,8.1,13.4c-8.2,1.1-20.6-6.6-27-11.9
		c-1.3-1.1-3.1-3-4.2-4.2c-26-9.8-53.8-12.2-79.3-22c-47.2-18.1-91.3-72.9-127.2-106.8c-79.9-75.4-147-99.4-256.8-96.2
		c62.4,30.4,120.9,66.7,171.6,114.5c24.8,23.3,44.3,54,74.2,71.3c60.9,35.1,137.5,30.4,202.4,55.9c56.8,22.3,103.8,71,154.7,104.4
		c-53.6,20.1-105.7,44-159.5,63.8c-27.9,10.3-246.9,81.1-255.9,92.4c5.5,6,14.1,6.4,21.8,7c23,1.9,45.2-0.1,67.7-5.1
		c106.5-23.7,208-70.6,308.4-112.1c137-56.6,273.9-112.3,404.7-182.3c65.2-34.9,124.2-81,188.7-117c50.9-28.4,105.3-50.7,154.1-82.8
		c49.9-32.9,76.7-89.1,125.2-120.9c39.2-25.7,85-43.8,125.8-67.1c81.9-46.8,149.1-101.3,220.5-162.6
		c-39.9,76.8-106.8,128.2-170.1,184.5c-65,57.8-130.8,116.1-200.6,168.1c-47.3,35.2-98.2,67.1-147.8,99
		c-181.1,116.6-375.4,212.8-547.6,342.9c-16.7,12.7-41,26.6-54.2,42.4c-3.9,4.7-2.7,6-2.1,12l6.2,2.2
		c19.9-4.8,161.3-110.8,196.5-133.5c153.4-99.4,316.4-183.5,469.1-284.3c123.9-81.8,240.6-180.3,350.1-280.5
		c32-29.3,63.7-60.6,89.4-95.7c29.3-40,45.3-84.9,85.3-116.7c89.9-71.5,188.5-135.1,282.6-201.2c23.7-16.6,100.5-64.2,114.7-83.9
		c3.3,27.8-49.7,125.9-62.9,155.2c-43.1,95.4-89.2,188.4-149.6,274.3c-46.4,66-99.9,126.9-150,190.1
		c-50.3,63.6-101.3,131.9-158,189.9c-35.5,36.3-110.6,72.1-155.7,101.7c-84.7,55.5-165.9,126.9-233.7,201.6
		c-15.1,16.7-47,47.5-51.3,69.7c-1,4.9-0.3,4.4,2,8.2c6.3,0.6,9.5,2.2,14.7-2.5c8.8-8,16.7-21,24.5-30.2
		c16.9-20,34.4-39.5,52.4-58.4c65-67.9,140.3-125.9,217.9-178.5c319.6-217,730.2-332.8,1020.1-585.4
		c200.9-175.1,331.1-372.2,497.3-575c65.2-79.6,143.2-150.6,199.6-237.1c20.4-31.4,36.9-65.6,51.2-100.2
		c22.8-55.2,47.7-153.5,90-194.5c44.9-43.6,110.9-69.4,170-86.8c21.6-6.4,49.9-12.4,69.4-23.5c1.1-0.6,2.1-1.3,3.2-1.9
		c0.1,1.1,0.3,2.1,0.4,3.2c1.3,13.9-7.4,30.4-12.9,43.1c-37.7,86.6-101,136.9-164.8,203.2c-29.4,30.4-57.3,62.2-83.5,95.5
		c-55.4,71-103.1,148-158.2,219.4c-25.5,33.1-54.7,63.1-81.8,94.8c-25.7,29.9-49.6,61.8-72.8,93.6c-20.2,28-39.2,56.8-56.8,86.5
		c-13.5,22.7-25.4,47.8-42.8,67.7c8.4-3.2,15.5-6.6,21.7-13.2c30.2-32.2,52-71.3,77.5-107c28.2-39.4,60.1-76.5,91.9-113.1
		c49.7-57.1,104.1-105.1,159.6-156.1l160.5-149.5c42.2-39.4,86.3-77.8,122.9-122.5c67.5-82.4,92.8-183.9,149.9-272.2
		c27.7-42.9,87.9-86.4,104.8-120.5C6045.4,1716.7,6044.9,1715.6,6038.5,1710.4z M2272.1,3524.9c-24.9-22.2-52.2-41.4-79.3-60.7
		c104.7,5.5,171,112.6,246.2,170.2C2361.7,3625.7,2325.6,3572.7,2272.1,3524.9z M5338.8,2039c20.8,13.2,43.1,23.8,63.6,37.4
		c-4,5.7-10.6,7-17,9.6c-8.8,8.1-22.1,11.8-33.3,15.1c-25.4-24.5-139.5-68-180.9-84.5c2.3-20.2-13.2-69.4-25.8-85.9
		c7.9,0.2,113.4,56,127.2,64.2C5295.6,2008.4,5316.5,2024.8,5338.8,2039z M5143.9,2036.2c7.6,1.9,17.1,12.2,22.1,18.1
		c-20.3,59.7-98.8,166.4-153.9,195.2c-2.4,4.6-4.2,4.8-8.5,7.3l-1-4.2c9.2-19.4,26.2-36.5,38.8-53.9c22.9-31.5,44.4-64,66.8-95.9
		c10.8-15.4,23.5-30.4,33.3-46.3C5147,2047.5,5146.3,2046.2,5143.9,2036.2z M5078.4,2256.1c-0.2,0.6-0.4,1.3-0.6,1.9
		c-2.5,6.1-5.4,9.4-11.3,12.3l-2.4-2.5c6.3-39.3,115.4-156.9,121.1-207.4c10.6,0.7,20.3,3.4,28.4,10.2c0.6,2.6,0.8,5.1,0.5,7.7
		C5211.9,2101.5,5100.4,2239.1,5078.4,2256.1z M5092.8,2303.9c-12.1,23-59.5,65.6-79.1,88.4c-29.4,34.1-56.4,70.6-82.8,107
		c-66.5,91.7-122.5,190.9-183.1,286.5c-89.7,141.4-197.3,273.6-330.1,376.6c-32.8,25.5-69.1,57.9-106.8,75.1
		c-0.1-0.7-0.3-1.5-0.2-2.2c0.5-6.8,97-137.7,110.6-157.1c85.5-121.8,183.4-236.4,261.8-363.2c18.6-30.2,34.6-63,49.2-95.3
		c11.3-25.1,21.4-68.2,39.5-88.4c24.4-27.3,101.1-67.2,135.2-91.8c61.7-44.6,120-95.8,182.7-138.4L5092.8,2303.9z M5153.7,2204.1
		c30.8-34.4,68.8-75,83.9-119.4c11.4,0.9,22.1,7,30.7,14.1c-0.2,2.4-0.1,3.4-1.2,5.9c-4,9-12.6,18.9-18.2,27.2
		c-30.2,43.8-64.8,78.5-112.8,103.1c-2.5,4.7-7.4,7-11.8,9.7l-1.7-1.8C5128.8,2228.3,5143.1,2215.8,5153.7,2204.1z M5286,2108.9
		c11.8,2.1,20.3,5.7,30.8,11.2c-7.1,9.3-23.2,14.5-33.7,18.9c-8.4,8.7-18.6,10.9-29.9,13.2C5267,2139.9,5278.6,2125.9,5286,2108.9z
		 M5181.2,1857.2c14.9,14.7,43.1,48.8,43.2,70.8c-0.9,0-1.8,0.3-2.7,0.1c-63.2-12.4-144.5-112.4-185.3-160.3
		C5059.6,1768.1,5162.6,1838.9,5181.2,1857.2z M5087.2,1859.6c-0.3,1-0.5,2.1-0.9,3c-3.4,7-13.9,16.2-19.3,22.5
		c-28.1,32.8-61.5,79.9-103,95.2c-6.2,5.3-7.9,6-15.8,7.8l-5.3-3.4c0.9-32.6,106.6-113.5,109.9-156.6c2.7,0.3,2.5,0.2,5.5,1.3
		C5068.1,1833.3,5083.2,1849.8,5087.2,1859.6z M5028.7,1797.5c7.4,3.8,8.1,3.4,11.5,11.5c-1.2,9.4-5.6,17.2-10.6,25.1
		c-27.5,43.9-83.8,115.6-135.1,127.9c-3.5,2.8-6.1,3.9-10.3,5.2c-0.1-3.4-0.9-8.3,0.4-11.5c11.2-27.4,68.1-86.9,90.4-109.2
		c14-14,37.1-31.6,45.9-48.7L5028.7,1797.5z M4997,1733.1c8.1,9.1,20.5,26,20,38.4c-0.4,1.2-0.6,2.5-1.3,3.7
		c-10.5,19.4-87,83.2-108.7,97.2c-11.7,7.5-23,12.6-36.4,16c-7.6,2.9-12.2,4.1-20.3,3.3l-1-4.1c49.6-47.9,105.1-97.6,142.4-156.2
		L4997,1733.1z M4908.7,1595.1c7.3,4.6,15.7,18.3,17.8,26.4c-0.2,2.6-0.5,5.1-0.9,7.6c-9.2,51.5-45.4,100.9-87.5,130.8
		c-1,3-3.5,5.8-5.4,8.3l-4.1-1c-16-29.4,65.2-134.5,72-174.5C4903.9,1592.9,4905.9,1593.3,4908.7,1595.1z M4865.8,1548.2
		c8.9,3.3,18.4,16,21.8,24.5c-10.5,29.9-56,129.6-82.2,143.6c-2,5.6-4.7,8.1-9,11.9l-3-3.5c-8.1-76.9,46.4-112.6,65.8-177.4
		C4861.6,1547.5,4863.5,1547.4,4865.8,1548.2z M4806.4,1499c2.7-0.1,5.5-0.2,8.2,0.5c10.4,2.9,23,16.6,27.4,25.9
		c0.5,2.6,0.6,2.7,0.3,5.8c-2.1,19.4-68.1,137.1-82.5,158.2c-11.3,16.7-27.4,39.6-44.6,50.4c-3.6,6.6-7.4,10-14.5,12.3l-4.3-3.7
		c-2.7-10.2-2-16.9,1.6-26.8c8.7-23.6,26.6-45.9,39.2-67.7C4753,1626.8,4807,1525.1,4806.4,1499z M4777.5,1508l3.2,2.6
		c2.9,15.2-61.5,137.7-75.9,159.8c-8.7,13.4-13.1,22.5-29.1,25.9c-3.2-50.3,59.9-107.3,55.6-152.1
		C4746.8,1536.7,4765.4,1520.4,4777.5,1508z M4462.4,1307.3c13.9,27.6,51.8,131.5,47.1,161c-18-31.6-28-68.6-41.2-102.5
		c-8.8-22.5-20.1-43.9-28.7-66.5C4447.9,1301.2,4454.9,1303.6,4462.4,1307.3z M4464.7,1422.9c-24.3-41-45.6-121.7-86.4-148
		c2.7-0.2,5.2-0.5,7.8-0.3c12.2,1,22.6,7.9,30.6,16.7c0.7,0.7,1.4,1.3,2.1,2C4434.4,1308.9,4465.2,1400.1,4464.7,1422.9z
		 M4421.3,1185c2,1.7,3.7,3.1,5.1,5.4c11.4,18.5,31.9,71.4,27.7,93.3c-34.7-23.3-158.1-85.2-196-94.3c-8.9-2.1-10-2.2-17.8,2.6
		c-0.2,1.5-1.2,3-0.8,4.5c0.7,2.7,81,47.6,92.1,58c36.8,34.5,65.4,73.7,87.4,119.1c13.3,27.4,24.3,53.1,41.7,78.3
		c12.4,18,46.2,62.5,69.4,65.4c6.3,0.8,7.4-0.9,12-4.7c1.2-26.9-26.5-122.1-43.8-143.1c-0.6-0.8-1.3-1.5-2-2.3
		c56.8,37.4,62.3,125.2,115.8,165.5c29.4,22.2,65.5,20.8,100.2,15.8c-3.4,39.7-55.1,92-59.5,139c-2.3,24.3,9.4,19.6,18.9,35.9
		c8.8,15.2,3.2,37,15.6,52.8c6.5,2.9,9.1,3.8,15.9,0.7c19.2-8.6,60.8-54.7,67.4-74.4c7.3,12,0.6,25.6,4.2,38.5
		c5.1,17.9,17.2,6.2,28.1,12.9c0.7,7.2,2,13.8,3.8,20.8c9.3,10.4,19.6,13.2,33,15.2l2.7,0.4c1.9,11.3-16.1,40-22.2,51
		c8.5-3.6,15.5-7.1,22.2-13.7c26.5-25.6,97.3-143.3,97.1-180.4c1.1,0.7,2.7,1.6,3.8,2.5c10.4,8.6,33.2,41.2,34,54.6
		c0.1,23.6-79.7,108.3-100.4,127.3c-14.3,13.1-46.8,27.4-52.8,45.3c-2.2,6.7-2.4,15.4,1.3,21.5c4,6.6,9.9,9.6,17.2,11.3
		c19.2,4.4,43.2-1.4,59.8-11.4c-5.3,13.2-19.1,23.4-28.2,34.3c-7.7,9.3-13.2,18.9-11.4,31.3c0.9,6.7,4,14.8,10.1,18.5
		c11.6,7.2,32,0,44.3-2.8c9.8,3.4,9.2,19.5,16.7,28.4c18.4,8.9,22.8-1.4,39.7-4.8c-1.8,9.9-5.6,24.5-1.1,33.9
		c3.3,6.9,8.7,11.1,16,13.1c12.2,3.2,26.1-3.1,36.2-9.6c31-20,86.5-79.7,94.7-115.7c10.5,11.8,11.9,23.6,11.4,38.7
		c-2.5,16.7-52.5,65.9-65,83.4c-9.2,12.9-16.9,27.3-24.3,41.3c-17.2,32.1-75.5,147.1-66.2,178c6,6.8,12.3,12.1,21.8,13
		c16.9,1.6,30.3-11.5,42.7-20.9c-1.1,5.7-2.4,11.3-1.1,17.1c1,4.6,1.4,8.6,1.6,13.3c-20.1,20.8-45,37.8-67.8,55.4
		c-64.1,49.5-129.7,94.1-197.1,138.7c-22.1,14.7-43.7,32.8-66.9,45.4c-0.2-0.6-0.3-1.3-0.5-1.8c-6.1-14.5-40.3-37.5-52.3-52.5
		c-21.5-27.2-38.1-61.9-65.9-83.5c-22.3-17.4-98-22.6-128.4-29.6c-35.3-8.2-72-18-104.5-34.5c-64.1-32.6-87.9-109.7-133.7-161.2
		c-54.3-60.9-119.5-111.5-170.6-175.8c-12.4-15.6-19.8-33.3-25.9-52.1c11.6-18.3,24-36.2,36-54.2c34.7,31.9,72.9,53.6,112.4,78.6
		c7.4,20.8,13.8,41.9,21.6,62.6c36,95.6,92,179.7,188,223.1c43.4,19.6,91.1,31.6,136.5,45.7c92.4,28.7,190.3,57.4,278.5,97.2l14.1,2
		c7.2-3.8,7.1-3.6,10-11.2c-5.4-24.8-35.1-51.1-51.8-69.3c-32.8-35.8-68.1-78.8-110.2-103.9c-21.1-12.5-46.4-17-69.7-24
		c-46.8-14.1-92.4-28-135.2-52c-82.2-46.2-146.8-112.9-223.7-165.7c-17.6-12.1-37.5-20.1-56.7-29.3c-39.4-18.9-75.8-42.1-106.4-73.6
		c1.4-12.8,3.6-25.7,5.4-38.5c7,7.5,14.8,14.8,23.2,20.9c44.2,32.6,108.1,50.1,158.7,71.9c42.1,18.1,83,39.5,123.9,60.1
		c11.6,5.8,66.8,40,72.4,40.9c2.4,0.4,4.8-0.8,7.3-1.1c2.5-4,3.7-4.2,3.1-9.2c-5.8-44.6-110.8-130.5-146-157.8
		c31.1,12,55.2,35.3,84.5,50.4c43.6,22.5,90.9,34.4,132.4,61.8c21.6,14.3,73.3,63.8,92.6,68.1l4.8-3.4c0.1-1.1,0.4-2.3,0.5-3.4
		c0.9-11.4-39.3-104.7-47.5-128.4c-8.3-24.1-31.8-121.5-42.6-134c-2.3-3-1.2-2.3-4.3-3.9c-31.8-16.7-61.3-37.4-92.8-54.7
		c-34.2-18.8-133.6-52.6-150.3-86.1c-4.6-9.3-6.9-17.3-15.6-23.4l-6.2,3.1c-15.6,28.4,66.4,177.8,86.5,210.2
		c11.8,18.9,47.6,58,49.7,78.3c0,0.6,0,1.2,0.1,1.8c-17.6-43.6-120.9-61.7-156.4-96.2c-58.6-57.1-84.4-126.9-127.5-194.1
		c-32-50.1-70.5-93.3-99.2-146c53.2,44.4,103.8,77.7,167.5,106.1c10.4,4.6,25.5,12.2,36.7,8c1.9-10.1-3.3-15.7-9.5-23.2
		c-49.6-60.3-82.9-125.3-107.4-199.3c-12-36.1-22.6-80.3-43.9-112.2c-22.2-33.4-85.6-45.4-98.6-83.4c-7.2-21.2,5.9-47,14.1-66
		c25.6,34,62.4,57.6,88.2,91.9c25.6,34,32.7,75.8,53.6,111.9c13.9,24.1,34.8,43.8,48.7,67.4c7.8,9,11.2,23.2,16.5,34.1
		c10,20.5,22.3,41.1,37.1,58.4c33.1,38.5,77.8,64.9,116.1,97.6c34.3,29.3,160.2,152.9,189.4,163.4c5.7,2,7,0.3,11.9-2.4
		c4.5-8.4,5.3-15.9,4.6-25.3c-6.7-79.1-60-140.4-103.5-201.9c-17.8-25.1-34.8-53.8-57.6-74.7c-39.7-36.6-92.6-63.4-122.7-109.5
		c-14.2-21.7-21.4-45.8-29.8-70.1c-7.1-20.3-17.1-39-24.5-59.1c-22.6-61-25.4-78.1-76.7-120.7c1.7,0.1,3.4,0.2,5.1,0.5
		C4169.1,1045.8,4407,1166.6,4421.3,1185z M4385,2622.3c-41.5-28.7-66.7-74.9-100.2-111.3l-1.7-1.8
		c-16.2-62.1-149.9-113.8-200.2-153c-54.8-42.7-100.3-106.5-121.2-172.6c4.7-26.4,15.9-51.9,25.3-76.9
		c34.7,73.1,93.3,142.9,156.5,193.1c21.9,17.4,46.2,31.7,67.7,49.5c26.9,22.2,49.8,48.7,76.6,71c6.8,1.4,7.6,1.8,14-0.8
		c3.5-33.7-146.4-135.1-176.7-164c-44.5-42.6-95-96.5-120.8-153.2c-10-22-11-31.2-2.6-53.9c23.2,20.7,47.6,62.8,73.6,88.3
		c77.2,75.7,221.5,194.9,324.4,230.3c52.6,18.1,107.9,24.7,161.8,38c2.1,7.3,1,13-1.3,20.2c-36.2,112.8-150.8,47.7-191.5,67.7
		l-0.3,4.3c2,2.3,3.9,5,6.5,6.6c0.8,0.5,1.7,0.9,2.5,1.3c20.7,11.9,51,9.5,74.6,13.8c13,8.3,25,22.1,36.5,32.6
		c26.2,23.9,62.9,43.2,96.8,53.5c-28,21-97.7,57.4-129.9,67.6C4449.6,2657,4400.3,2632.9,4385,2622.3z M4434.3,2679.5l-1.8,6.6
		l-4.5,2.5c-5.4-1.1-10.8-2.4-15.9-4.5c-47.7-19-87.5-61.1-106.6-107.9c12.3,3.9,55.6,53.1,70,65.1
		C4393.6,2656.2,4415.9,2664.9,4434.3,2679.5z M4090.8,2463.9c35.9,39.3,130.8,93,145.1,125.8c1.2,2.8-1.4,6.9-2.5,9.7
		c-12.5-28.6-93.4-71.5-121.2-93.9c-22.3-18-44.4-40.3-61.1-63.7c-14-19.6-22.6-35-18.7-58.7
		C4041.3,2389.5,4076.8,2448.5,4090.8,2463.9z M3841.3,2680c24.5-35.5,49.8-70.3,76.1-104.6c22.9-30.1,48.3-60.4,67.1-93.1
		c13.4,10.7,19.4,41.4,30.5,56.5c18.2,24.5,47.8,42.9,70.1,64c-46.5,85.2-93.4,102.3-172.8,149c-19.8,10-39.2,19.1-60.1,26.6
		C3863.5,2737.7,3860.8,2717.4,3841.3,2680z M3789.5,2710.2l-25.8,29.4c-0.5-3-0.4-4.4,0.5-7.3c4.9-14.3,4.7-28.2,6.8-43.1
		c3.8-27.9,13-49.5,26.5-73.9C3798.3,2641.7,3788,2675.2,3789.5,2710.2z M3825,2698.9l6.2,6c1.1,4.5,2.5,7.3,1.2,12
		c-9.8,35.4-73.5,77.3-105.2,94.1l-2.3,0.4l-2.5-2.2c1.3-8,6-14.6,11.4-20.5C3763.3,2756.5,3794.5,2735.8,3825,2698.9z
		 M3816.6,2680.1l-1.2,1l-3.9-0.3l-2.1-4.1c2.1-38.4,12.4-85.2,35.9-116.3c4.1,7.8,4.6,25.5,6.2,34.7
		C3857.5,2630.4,3835.8,2653.1,3816.6,2680.1z M3875.6,2536.8c8.2,7.6,11.4,29.2,14.3,40l-16,21.3c-1.4,0.6-3.8,0.3-5.3,0.4
		c-1.1-2.7-1.8-4.8-2.3-7.8C3864,2574.3,3865.9,2550.7,3875.6,2536.8z M3894.6,2529.8c4.5-10.1,9.9-12.8,18.6-19.1
		c3.9,4.4,4.6,12.3,4.2,18.1c-0.9,11.9-6.6,21.1-15.5,28.7C3898.9,2548.2,3896,2539.4,3894.6,2529.8z M3975.9,2442.4
		c-17.4,16.4-40,28.4-59.6,42.1c-58,40.4-113.9,86.4-179.1,114.5c-15.1-18.7-32.5-34-51-49.1c-15.5-13.8-34.7-24.6-50.8-38
		c-6.5-5.4-12.9-11.2-13.6-20c27.4-14.7,59.3-24.3,88.2-35.9c42.1-17.3,83.7-35.8,124.7-55.5c58.8-28.3,110.5-67.8,168.1-97.9
		c7.5,6.4,12.9,15.4,18.6,23.4c-3.3,23.5-7.5,50.2-16,72.3C3999,2415.4,3989.2,2429.9,3975.9,2442.4z M3594.2,2441.8
		c4.9-9.6,5.6-19.5,8.3-29.8c5.3-20.4,28.8-30.2,45.5-40.4c-1.6,13.4-19.8,27.5-26.6,39.8c-13,23.4-17.8,50.5-30.7,73.6
		c-8.4,15-24.1,13-36.6,22.3c-42,31-60.8,73-114.8,88.9C3460.6,2536.7,3563.5,2501.5,3594.2,2441.8z M3431,2570.9
		c-9,11.1-14.7,24.6-20.5,37.5c-24.2,7.2-43.3,24.3-63.1,39.2c1.6-11.8,7.8-21.8,13.4-32.1c32-58.6,77-66.1,124.7-104.1
		c26.8-21.4,49.3-48.5,72.2-73.9C3555.2,2465.3,3453.6,2542.9,3431,2570.9z M3666.1,2379.5c8,11.9,4.7,52.8,6.8,69.3l-38.5,15.8
		l-3.3-0.7l-1.1-3.5C3640.3,2432.8,3651.6,2405.1,3666.1,2379.5z M3606.1,2512l20,19.5c-32.1,31.9-68.1,58.6-92.8,97.3l-2.6,2.8
		c-7.1-2.5-6.9-3.3-10.7-9.3c7.9-19.8,41.4-48.8,56.2-67.3C3586.9,2541.3,3596.5,2526.4,3606.1,2512z M3635.8,2543.7l2.4-3.1
		c7.5,4.8,13.3,9.2,19,16.1c-11.4,20.9-67.3,78.1-87.6,87.5c-6.9,0.1-13.8,1.2-19.6-3.3C3570.3,2602.6,3609.4,2577.4,3635.8,2543.7z
		 M3600.2,2642.1c26-23.7,50.2-48,71.8-75.8c4.8,3.6,7.7,6.7,11.3,11.5c-24.1,38.2-56.2,72.1-78.2,111.4
		c-18.8,33.6-23.6,74.8-46.4,106.3c-10.5,14.5-23.3,20.7-39.1,28.1c-4.3,0.8-4.7,1-8.7-0.7c5.6-17.5,27.8-33.1,37.8-49.7
		c11.8-19.5,16.3-41.9,26.2-62c6.1-12.3,16.5-23.9,24.9-34.7L3600.2,2642.1z M3619.5,2704.2c23.8-40.9,55-74.2,75-117.8
		c6.8,4.5,14.4,10.3,16.4,18.5c-8.7,10.3-19.7,18.9-27.5,30c-8.2,11.8-13.7,26.1-20.5,38.8c-19.2,35.9-38.7,71.5-65.2,102.5
		l-7.5,4.2l-1.9-1.9C3599.8,2753.8,3605.6,2728,3619.5,2704.2z M3897.9,2197.4c-32.8,9.8-41.9,49.6-68.2,65.7
		c0.3-4.6,0.8-8.3,2.6-12.5c18.8-45.8,64.4-63.7,107.3-80.4l5.9,2.1l1.6,6c-2.4,13-6.4,20.7-14,31.2c-21.8,30.3-57.6,50.9-84.9,76.5
		c-13,12.2-22.8,27-36,38.8c15.4-31.2,37.4-58.9,60.6-84.7c13-11.5,28.2-21.2,29.4-39.9L3897.9,2197.4z M3952.1,2208.6
		c2.4,3.7,5.1,9.3,5.7,13.6c1.5,9.9-47.2,67.8-56.6,82.8c-1.2-3.9-2.8-7.5-4.3-11.3l-5-1.3c-35.3,18.8-45.8,79-60.8,90.4
		c-7,2.9-13.8,7.5-21.2,5.4C3823.6,2297.4,3917.6,2279.7,3952.1,2208.6z M3967.8,2250.6c10.7,8.4,17.1,21.6,23.8,33.1
		c-20.6,14-42.5,26.7-63.6,39.8l-8.4,4.8l-3.4-1.7C3917.1,2301.7,3950.6,2268.4,3967.8,2250.6z M3894.2,2336
		c-2.8,12.8-16.3,19.1-26.6,25.4c-0.1-18.4,15.5-33.9,26.8-47.4C3896,2320.5,3895.6,2329.4,3894.2,2336z M3809.1,2275.4
		c-10.9,60.5-71.6,99.4-117.8,132.4c-1.8-10.2-1.3-23.5-0.5-33.9c3.3-40.4,45.4-62.6,74.6-83.6c15.8-11.4,30.8-23.8,45.8-36.3
		C3811.4,2260.8,3810.3,2268.6,3809.1,2275.4z M3785.4,2401.9c-26.6,11-53,21.7-80.4,30.6l-0.3-4.7c13-20.9,73.4-59.1,96.8-83.5
		C3803,2358,3789,2386.7,3785.4,2401.9z M3369.3,2321.8c-8.1,15.7-16.2,31.3-24.5,46.9c2.2-30.1,5.2-58.6,16-87.1
		c20.4-53.9,71.1-143.2,124.3-167c5.1-0.1,10.6-0.2,15.6,0.6c17.7,3,32.2,42.3,41.7,56.6C3464.2,2205,3410.6,2245.8,3369.3,2321.8z
		 M3485.1,2222.8c-10.8,19.4-27.1,37.5-39.5,56.3c-31.7,48.2-54.6,96.2-96.9,136.7l-2.3-2.9c3.2-15.9,11.9-31,19.2-45.4
		c29.5-58,64.4-108,117-147.5L3485.1,2222.8z M3279.5,2365.2c-2.8-16.9,3.7-38.1,6.8-54.8c29-17.6,48.7-44,70.4-69.6
		C3355.4,2253.8,3291.5,2340.8,3279.5,2365.2z M3533.9,2117.6c-6.5-10.9-16-21.3-28.8-24.2c-22.8-5.1-47.9,10.9-66.6,21.9
		c-21.4-0.4-42.4-3.8-63.5-6.8c-19.5-0.3-37.2,0.7-56.5,3.8c-1.8-1.8-3.6-3.7-5.4-5.5c-9.2-9.5-17.8-17-17.6-31.1
		c18.6-25.4,141.6-42.7,176.5-53.8c23.2-7.4,42.2-16.7,62.8-29.7c11.4,1.3,21.9,0,32.8-3.5c34.4-10.8,70-31.4,103.2-46.2
		c67.6-30.1,144.3-54.1,205.2-96.3c38.5-26.7,68.5-60.4,103.9-90.4c21.7-18.4,47-33.8,70.7-49.4l2.8,3.6c-4,27.1-2.7,51.8-1.1,79
		c3.5,59.3-18.2,97.5-47.3,147.2c-94.6,29.4-219.4,43.8-290,116.1c-31.1,31.8-51.9,70.6-84.8,101.7c-24.1,3.1-48.4,4.9-72.6,7.4
		C3548.3,2147.5,3542.4,2131.9,3533.9,2117.6z M3555.4,1968.4l1.2-6.1c26.8-29.7,84.6-38.3,120.7-57.5l1.8,1.1
		c-16.5,21.4-93.9,53-121.3,65.3L3555.4,1968.4z M3788.5,1870.9c0.1-2.3,0-3,0.9-5.4c14.1-38.2,52.5-61,86.6-77.9l0.8,0.8
		c0.8,4.1-40.5,51.4-45.9,61.7c-12.8,8.5-26.8,15.3-40.4,22.5L3788.5,1870.9z M3687.2,2123.2c5.1-11.9,17.5-26.5,25.6-36.8
		c71.6-91.3,179.2-86.9,277.6-126.2c1.9,2.6,1.1,5.6,1.2,8.7c-10.2,12.7-132.2,41-159.3,52.9c-34.3,15-57.1,45.5-85,69.3
		c-18.4,15.7-38,27.5-59.3,38.8l-1.7-1.4C3686.4,2126.3,3686.3,2125.3,3687.2,2123.2z M4583.7,2586.1c-5.3-2.7-10.4-5.4-15.4-8.5
		c3.9-11.2,33.6,0.5,43.9-7.5c-9.7-26.8-51.6-47.1-61.6-81.7c-0.8-2.9,1.7-5.4,3.1-7.9c1,0.3,2,0.7,3,1c8.5,3.4,42,55,51,65.4
		c8.5,9.8,21.8,18.5,26.1,30.7c-4.4,6.4-10.8,12-17.9,15.2C4605.5,2597.5,4593,2590.4,4583.7,2586.1z M4630,2542.2
		c-19.5-20.8-38.6-42.3-52.4-67.4c-7.6-13.7-7.1-16-2.9-30.3l4.9,1.5c24,25.6,31.5,58.8,60,87.2c7.6,7.5,21.3,18.9,21.5,29.6
		l-8.8,3.8C4647.4,2558,4636.8,2549.5,4630,2542.2z M4673.7,2319.5l-0.6,0.5l0.7,4l-4.5-1.1l3.8-2.9l-0.5-2.7l-11.3-0.3l0,0.2
		c-36.1-33.4-52.6-68.6-78.4-108.8l-1.1-1.8c31.4-2.4,74.5,20.7,98.5,39.8c20.3,16.2,102.2,97.2,105.1,121
		c-17.5-18.7-54.2-22.7-75.2-40.9c-4.8-4.2-9.9-8-14.9-11.9c-0.2-0.8-0.3-1.6-0.6-2.3c-3.8-10.2-59-71.2-67.8-74.7l-2.6,3.9
		C4626.3,2274.2,4661.1,2291.2,4673.7,2319.5z M4589,2253.9c8.4,14.9,24.1,30.5,29,46.1l-3.2,3.3c-9.8-3.8-19.6-7.3-29.5-10.5
		c0.1-13.3-49.5-89.1-59.4-104.6c12.1,0.3,28.2,5.3,39,10.6C4572.2,2218,4578.8,2235.9,4589,2253.9z M4555.5,2284.8
		c-0.5-0.2-1.1-0.3-1.6-0.5c-0.8-0.3-1.7-0.7-2.6-1c-37.3-14-60-79.9-78.5-113.2c11.6-0.9,24.1,5.1,34.6,9.6
		C4515.5,2191.8,4556.3,2276,4555.5,2284.8z M4500.3,2266.6l-2.8,0.3c-29.5-12.6-59.7-97.6-73.2-127.1c0.9,0.1,1.8,0.1,2.8,0.2
		c8.7,1,20.1,8.8,25.3,15.4C4452.9,2156,4500,2265,4500.3,2266.6z M4452.4,2248.4l-6.5-0.8c-39.9-27.6-55.5-103.9-79.6-144.1
		c0.9,0.1,1.8,0.1,2.7,0.3c11.6,1.5,25.3,11.3,32,20.6c7.9,11,9.4,28.6,14.4,41.6C4421.8,2182.8,4452.2,2236.2,4452.4,2248.4z
		 M4382.9,2188.6c6.4,13.3,24.3,33.6,24.3,47.7c-6.7-0.2-21-10.5-27.5-13.9c-0.1-2.4-48.9-135.8-54.2-146.1
		c5.9,0.9,10.3,0.6,14.6,5.5C4346.4,2088.7,4374.4,2170.9,4382.9,2188.6z M4353.9,2206c-0.3-0.1-0.6-0.1-0.8-0.2
		c-38.2-18.3-64.3-137.1-85-177.9c14,0.2,27.9,15.4,37.4,24.5c0.4,0.4,0.8,0.8,1.2,1.2c4.9,7.1,6.5,30.2,9.3,40.2
		C4320.9,2111.6,4354.4,2197.8,4353.9,2206z M4296.9,2157.7c-47.4-43.2-46-108.8-69.7-163.2c5.4,0.8,8,2.4,12.5,5.2
		C4244.7,2006.7,4297,2148.5,4296.9,2157.7z M4072.8,1730.1c2.5-12.6,6.8-24.7,10.7-36.9c30.8,27.1,70.9,33.7,102.2,58.3
		c21.4,16.9,38.3,41.7,57.3,61.4c28.8,30,59.5,54,92.6,79c11.9,9,54.2,38.1,56.1,52l-8.9-1.8c-9.2-21.9-109-64.3-133.1-78.4
		C4187.2,1827.3,4128,1777,4072.8,1730.1z M4477,1832.6c1.7,0.5,2.6,0.7,4.5,1.3c28.9,10.3,90.7,91.4,103.4,120.5
		c4.4,10.1,6.8,16.7,2.9,27c-3.2-10.2-31.8-33.4-40.5-42.6C4526.1,1916.4,4476.1,1864.1,4477,1832.6z M4499.5,1917.1
		c-5.2-0.4-9.9-2.2-13.2-6.5c-23.9-31.8-39.5-76.5-70.2-108.4c13-0.3,28,7.6,38.2,15.5c8.5,6.6,6.7,21.3,9,31.4
		C4469.1,1873.2,4496.6,1893.3,4499.5,1917.1z M4543.1,1870.6c-0.5-3.9-0.8-6.5-2.6-10.1c-17.2-34.1-70.9-60.5-106.3-70.9
		c-4.9-3.8-13.7-8.3-19.7-10c-6.3-1.7-7.1-1.3-12.7,1.9c-10.3,32.7,47.2,87.3,61.2,117.3l-1.9,0.7c-37.1-37.8-79.9-94-103.7-141.6
		c-14.5-29-25.8-68.1-45.7-92.9c-0.4-0.5-0.9-1.1-1.3-1.6c1.6,0,4.7-0.2,6.4,0.1c26.3,4.3,194.9,93.8,211.4,114.7
		c1.4,1.8,2.8,3.8,3.8,5.8C4540.3,1800.8,4548.7,1852.6,4543.1,1870.6z M3970.8,1328.7c22.3,14.8,43.3,37.2,64.1,54.7
		c33.4,28.2,66.8,52.1,103.1,76.4c13.3,12.2,38.9,47.5,41,65c-6.1-2.9-12.2-6-18.2-9.1C4080.9,1474.7,3999.3,1417.5,3970.8,1328.7z
		 M3972,1396c-71.4,22-135.8,64.1-205.5,91.2l-11.4,3.1l-0.4-3.3c46.2-56,135.7-98.1,194.8-145.2
		C3958.7,1351.6,3966.6,1382.2,3972,1396z M3968.1,1240.3l0.3-43.8c43.2,39.7,98.1,67,117.7,125.7
		C4044.9,1301.4,4005.3,1267.8,3968.1,1240.3z M4048.2,1110.8l-1.7,0.5l-7-4.6c-10.8-35.7,11-83.5,25.6-115.7
		c5.8,4.7,10.2,12.9,14.4,19.1C4063,1042.9,4055,1074.9,4048.2,1110.8z M4092.7,1029.9c7.9,5.3,15.1,12.4,22.4,18.5
		c-8.5,22.8-14.5,45-16.4,69.4c-1.1,14.1,0.4,28.2-3.2,42c-8.2-9.3-17.3-19.5-20.9-31.6C4065.1,1096,4078.2,1058.5,4092.7,1029.9z
		 M4221.5,1389.4l-5.6,2.9c-4.9-16.4-17.3-42.7-29.3-54.9c16.9-13.9,30.9-53.8,37.8-74.9l5.4,2c7.4,10.4,14.6,24.7,14,37.7
		C4245.8,1310.7,4224.7,1374.4,4221.5,1389.4z M4259.1,1434.6l0.4,4.1c-5.5-0.8-16.9-17.2-22.2-21.7c-0.5-0.5-1.1-0.9-1.6-1.3
		c6.6-10.1,16.9-79.7,20.2-95.8c0.9,0.3,1.9,0.4,2.8,0.8c9.5,4.1,21,19.3,24.2,28.9C4285.8,1362.3,4265.7,1422.3,4259.1,1434.6z
		 M4297.1,1366.9c0-0.6,0-1.2,0.1-1.8c1.8,0,3.3-0.1,5,0.3c7.2,1.6,14.3,8.3,18.1,14.4c0.1,6.9-11.8,93.1-13.4,97.6l-1.4,1
		c-5.2,0.4-8.8-0.4-13.8-1.6C4269.7,1450.3,4295.6,1397.4,4297.1,1366.9z M4218.7,1237.1c-0.6,16.5-23.9,54.7-36.1,66.3
		c-0.5,5,0.4,2.8-3,6.4c-0.6-1.1-1.3-2.3-1.9-3.4c-20.3-38.8,6.8-82.7,17.5-120l0.6-2.3l5,2.7
		C4208.5,1200.2,4220.7,1221.7,4218.7,1237.1z M4147.4,1260.3l1.8,6l-2.1,0.9c-19.4-48.9,2.6-108.5,19.4-155.6l4.9,1.7
		c9,12.3,15.6,28.1,15.2,43.6C4187.2,1161,4151.8,1253.1,4147.4,1260.3z M4129.4,1146c1.1,7.5,1,12.3-1.4,19.5l-3.4,0.6
		c-15.3-26.6-1.1-69.8,1.6-98.7l0.2-2.2c4,0.8,3.5,0.5,7.2,2.1c8.2,3.6,17.6,12.5,20.8,20.8C4154.5,1102,4138.7,1136,4129.4,1146z
		 M4334.5,1395.4c2,0,2.3-0.1,4.5,0.3c10.6,1.9,20.3,9.7,26.2,18.5c1.1,8.3-6,95.8-8.7,105c-9.6-3.3-20.6-15.9-30.5-21.4
		C4329.4,1491.5,4335.3,1404.8,4334.5,1395.4z M4380.8,1426.9c6.1,4.7,12,7.6,13.4,15.9c2.6,15.9,5.3,97.1,1.8,110.5l-4.2-0.7
		C4369.6,1515.8,4375.9,1467.7,4380.8,1426.9z M4446.4,1611.6c-4.3-13.4-20.3-27.4-30.3-37.4c0.4-1,0.8-2.1,1.2-3.1
		c3.4-9.9-6.7-96.7-12.9-108.8c8.1,6.3,13.9,13.1,19.1,21.9c8,13.5,13.5,30,9.5,45.6C4440.7,1550.5,4450.4,1590.3,4446.4,1611.6z
		 M4447.9,1519.2c5.5,2.7,9.3,6.7,12.7,11.8c5.8,8.6,28.5,102.7,27,111.9c-6.6-1.8-12.7-8.7-17.9-13.2
		C4467.1,1592.1,4456.4,1555.9,4447.9,1519.2z M4401.2,1142.6c-16.8-2.5-55.6-28.7-73-37.7c-55.1-28.5-112.1-53.6-168.1-80.3
		c-82.6-39.5-77.5-49.8-106.8-133.1c23.7,8.4,47.5,26.4,68.9,39.5c39.6,24.4,79,49,119.7,71.5c31.9,17.7,107.9,50.6,130.1,73.1
		C4383.9,1090.8,4402.8,1123.3,4401.2,1142.6z M4247.8,850.1c1,0.8,2.1,1.6,3.1,2.4c17.8,15,74.2,113.2,76,133.2
		c-18.5-3.6-66-29.8-86.9-38.7c-38.5-16.4-77.7-29.1-115.3-47.9c-86.9-43.4-157.4-108.3-185.4-203.8c-11.7-39.9-18.1-81-31.4-120.6
		c12.9,5.9,26.1,17.2,37.7,25.6c17.3,12.6,34,26.1,49.9,40.4c15.9,14.3,31.1,29.4,45.5,45.3c32.4,35.8,62.2,74.6,99.6,105.5
		c31.5,25.9,70.7,37.3,105.5,57.4L4247.8,850.1z M3853,411.9c50,58.1,70.1,65.9,135.3,102.4c53.7,30.1,53.6,82.2,88.9,125.6
		c37.2,45.7,141.8,127,156.5,179.8c-19.2-1.8-47-20.6-63.1-31.4c-52.8-35.7-90.4-88.4-133.7-134.3c-24.4-25.8-52.8-48.9-79.5-72.3
		c-18.6-16.3-36.8-33.2-55.8-48.9c-22-18.2-57.8-36.6-73.1-60.9c-20.3-32.2-25.9-85.5-33-122.2
		C3817.4,365.5,3835.4,391.5,3853,411.9z M3749.4,322.1c3.4,3.6,7.1,8.9,9.3,13.3c3.2,6.6,2,9.9-0.6,16.3
		c-10.4,10.2-26.5,14.7-39.9,19.8c-2.9,1.3-4.6,1.1-7.7,1.1C3713.3,357.3,3738.3,334.3,3749.4,322.1z M3612.5,496
		c40.8-61.2,83.9-90.5,149.7-118.8c9,7.6,10.7,33.5,12.7,45.3c-51.1,28.5-105,52.1-157.3,78.2l-5.6,1L3612.5,496z M3563,564.4
		c7.9-26,172.1-97.3,206.6-115.3l3.4,0.7c1.2,6.1-17.9,29.7-22.5,37.1c-63,21.8-123.2,51.2-182.9,80.7l-5-0.6
		C3562.7,566,3562.7,565.1,3563,564.4z M3457.5,746c38.5-46.7,140.3-64,198.2-69.6c7.6-0.8,10.8-1.7,18,1.3
		c-4,23.1-51.3,62.3-68.5,80.6c-52,8.7-101.8,21.2-151.6,38.7c-8.7,3.6-17.6,6.9-26.4,10.3C3435,786,3442.9,763.6,3457.5,746z
		 M3405.9,838.4c45.8-23.1,94.2-37,144.1-48.2l5.9-0.5l2.2,3.8c-6.9,19.7-20.7,38.5-31.6,56.3c-50.9,22.3-101.8,30.9-156,39.9
		l-5.5,0C3368.1,875,3397.3,854.5,3405.9,838.4z M3485.6,889.9c-6,11.5-11.6,24.8-22.3,32.6l-8.3-4.3c-6.2-5.3-12.4-9.4-14.8-17.6
		c8.4-9.8,30.3-11.3,43-14L3485.6,889.9z M3057.6,1208.2c44.4-36.6,102.9-60.7,155.7-82.3l1.6,0.6l0.3,2.7
		c-29.2,26.7-58.5,56.7-90.3,80c-28,20.5-58.5,36.8-85.5,58.7l-2.2,0.5C3034.9,1256.7,3052.6,1221,3057.6,1208.2z M2858.4,1407.1
		c16,13.6,30.3,38,45.3,54.1c9,9.7,28.2,21.8,33.1,33.2l-6.2,0.6c-29.9-7.6-60.1-14.9-90.7-18.9
		C2847.6,1453.8,2852.6,1430.1,2858.4,1407.1z M2602,1708.9c12.5,6.8,26.3,22.8,38.1,32.1c46.2,36.2,103,61.6,162.6,63.6
		c9.8,0.3,18.6,0.5,25.9-6.4l-3.5-6.6c-8.1-5.4-17.3-4.7-26.8-4.9c-46.3-0.7-123.5-40-157.4-70.6l-2.8-2.5
		c67.9,25.4,149.9,64.2,223.6,57.3c36.9-3.4,73.3-15.8,110.3-16.1l3.6,0l30.1,10.1c-94.4,78.1-154.6,82.6-267.9,44.6
		c-34.8-11.7-68.8-22.6-106-23.6c-61-1.6-121.4,21.3-177,43.4C2506.7,1752.5,2511.6,1741,2602,1708.9z M2329.6,2060.1
		c59.4-33.3,128.9-59.9,193.8-79.9c37-2.7,80.4-3,116.9,4.5c32.1,6.6,63.5,17.1,95.9,21.9c52.6,7.7,106.7,4.2,159-3.8
		c-122.6,78.7-166,24.8-292-1.2c-24.2-3.5-45.5-4.3-69.2,2.1c-50.2,13.5-101.5,48.8-147.9,73c-27.6,14.4-56.1,26.4-83.5,41.1
		C2311.4,2098.5,2320.4,2079.3,2329.6,2060.1z M2213,2134.3c14.6,6.6,30,12.7,46.2,12.9c88.7,0.8,223-124.6,306.7-128.7
		c53.1-2.6,110.6,22,161.2,36.5c57.3,16.4,93,13.1,144.9-15.8c19.5-10.9,66.7-36.8,72.7-57.8c-1.3-0.7-2.5-1.5-3.9-1.9
		c-20.5-6.4-112.6,13.6-145.1,13.4c-51.6-0.3-97.9-14.8-147.3-27.1c-113.3-28.1-213.3,23.5-312.7,70.3
		c22.5-57.2,57.4-137.5,98.2-182.7c65.5-16,126-48.4,195.3-48.7c98.5-0.5,175.3,75.6,280.4,39c25-8.7,117.4-56.2,127.2-81.1
		c1.7-4.4,0.1-5.5-1.6-9.6c-4.4-3.4-58.5-19.1-64.5-19c-48.8,0.4-93.3,22.6-143.2,17.9c-71.4-6.8-165-68.9-229.6-59.3
		c-23.6,3.5-49.2,15.6-72.2,23.2c12.4-22,24.2-46.2,39.1-66.4c20.3-27.4,46.7-32.8,77.3-43.1c87.4-29.4,117.8-38.1,210.1-26.1
		c18.7,2.4,45.5,9.4,63.5,5.7c6-1.2,6.6-4.3,9.7-9l-2.7-5.2c-25.6-15.6-115.8-14.9-148-15.7c22.1-19.5,38.8-41.7,55.9-65.4
		c43.2,9.7,86.6,23.6,130.1,31.2c9.7,1.7,17.3,2.9,25.6-2.9c-4-22.6-36-35.2-50.4-51.7c-4.1-4.6-5.2-5.1-4.9-11.1
		c2.5-1.1,9-3.1,10.6-4.8c13.2-13.4,20.6-43.9,47.3-67.6c41.3-36.7,108.3-67.6,158.4-91.6c-8.1,18.8-18.8,36.5-28,54.7
		c-4.7,9.3-12.8,23.3-9.4,33.9l4.8,0.4c37.2-27,60.1-122.8,94.5-157.3l1.5-1.5c32-32.3,76.3-50.8,108.4-83.9
		c21-21.7,43.7-71.2,41.6-101.3c-0.4-5.4-2.7-6-6.6-9.2c-21.2,7.6-24.8,75.3-45.5,94.3c-60,55-107.5,64.4-148.3,142.5
		c-55.1,20.6-108.7,57.8-158.5,89.2c8.3-20.1,15.3-40.9,30.8-56.7c32.1-32.8,77.3-51.2,113.4-79.3c38.6-29.9,70.7-71.7,110.4-99.2
		c16.6-11.5,52.2-9.9,62.9-27.5c-4.3-5.3-5-6.6-11.8-7.6c-53.9-8.5-198.2,66.5-243.3,97.2c6.8-19.1,14-38,21.9-56.6
		c12.5-10.9,28.1-17.9,40.9-28.8c43.2-36.7,48.4-85.3,67.2-135.5c8,9,16,21.3,26.2,27.7c7.6,4.8,17.3,7,26,4.3
		c23.3-7.5,50.9-93.3,65.9-121c14.1,19.4,32.1,30,51.7,43l37.8-8.8c22.8,14.1,45.3,28.6,67.6,43.4c10.8-16.8,21.2-34.7,34.1-50
		c16.2-19.3,35.2-36.1,50.2-56.5c14.2-19.2,24.9-41.2,35.9-62.3c5.1-0.4,10.3-0.8,15.3-1.6c27-4.1,76.4-65.6,92-87.5
		c6.3-8.9,11.2-16.9,9.4-27.9c-2.3-2-4.4-3.8-7.2-5c-41.8-17.9-180.4,30.5-225,45.7c7.6-15.8,16.4-30.9,25.3-46.1
		c47-25.4,111.4-42.9,164.6-35.6c13.4,1.8,26,6.9,39.1,9.9c6.8,1.6,11.4,2.3,17.2-1.5c0.2-2.7,0.5-4.3,0-7.1
		c-1.3-6.8-8.2-11.5-14.1-14.2c-50.2-23.1-135.1,1.4-185.4,17.4c4.3-6.9,8.8-15.1,15.1-20.3c32.2-26.9,127.1-61.9,168.2-77.5
		c18.9-7.1,46.4-14.2,61.8-27.4c7.5-6.4,13.3-19.7,18.1-28.3c6.7,10.6,10.3,22.2,18.6,32c19.5,23,52.3,39.8,65.7,67.5
		c10.2,21.1,15.2,45.5,21,68.2c19.1,73.9,36.7,133.8,87,193.9c-23,96.9-127.5,147.3-183.1,225.4c-29.2,41-37.4,85.8-58.6,130.1
		c-13.3,27.9-30.8,53-45.1,80.2c-16.8,32-34,73.4-43.5,108.4l3.5,5.7l6.7,1c17.4-8.7,45.9-97.9,59.7-120.9
		c32-53.7,68.6-103.6,112-148.8c32.6-34,69.8-64.4,96.8-103.4c31.4-45.3,37.7-116.6,70.1-154.8c2.2,1.4,4,2.4,5.6,4.5
		c53.4,69.5-42.4,190.2-52.2,265.9c-7.3,56.4,4.4,115.9,1.7,172.7l-0.2,4c-32.1,56.8-105.1,82.6-155.2,120.9
		c-52.3,40-90.6,98.8-143.9,136c-35.6,24.8-80.7,31.4-114.8,57.8c-29.4,22.7-43.8,59.6-48.1,95.6c-1.5,12.8-1.1,20.4,6.9,30.6
		c5.1,1.9,8.6,2.8,14,1.6c32.8-7.3,77.6-53.6,107.8-73.1c16.6-10.7,52.4-20.6,62-38c2.3-4.2,1.4-3.8,0.1-7.9l-5.7-2.7
		c-48.9,6.5-129.5,77.4-168.8,108c4.8-23,8.8-46.8,19.6-67.9c27.1-52.8,83.6-52,129.5-78.8c24.9-14.5,43.1-38.5,67.8-53.7
		c31.6-19.4,68.4-32.5,102.1-47.9c52.7-24.2,103.8-52,159.4-69.2c21,41.2,43.8,79.6,69.4,118.2c-35.6,5-69.5,15.2-100.7,33.6
		c-9.8,5.8-25,14.7-28.1,26.3c15.1,5.6,93.8-34.3,118.8-38.2c12-1.9,20.6-1.6,30.7,5.8c4.5,6.5,6.3,11.7,6.3,19.7
		c0.3,55.1-111.3,140-156.7,165.2c-39.9,22.1-83.1,35.8-122.8,59.2c-49.5,29.1-97.6,68.6-148.9,93.3c-26.7,12.9-57.8,16.3-83.8,30.7
		c-30.8,17-47.3,51.2-80,65.9c-57.4,25.8-169.6,25-210.7,71.3c-17.7,20,8.1,25.5,9.4,40.5c-49,5.8-51.6,27.6-90,45.5
		c-14.8,6.9-32.6,4.6-48.2,8.9c-66.6,18.3-137.7,116.6-171,174.1c-3.4-19.9-7.9-38.5-15.7-57.1l4.3-2.7l-2.7-5.6l4.5,1.8
		c43.9-53.2,53.3-126.5,92.9-180.9c18.5-6,37.9-9.6,56.6-15.4c37.7-38.7,64.3-93.7,96.2-137.8c17.3-24,40.2-45.8,56.3-69.9
		c-0.1-7.3,0.2-7-4.8-12.3c-32.3,3.3-129.9,167.6-157.9,198.7l-2.7,3c-13.6,3.7-28.1,7-40.9,12.7c-30.6,13.6-40.3,42.4-51.4,71.4
		c-13,1-32.1,0.2-44.2,4.7c-32.4,12-32.3,64-54.6,86.4c-19.3,19.3-45.3,34-67.2,50.5c-49.2,37.1-136,117.8-200,116
		c-30-0.8-21-29.3-36.3-45.7c-4.7-1.7-7.3-3.5-12.4-2.4c-17.2,3.7-103.8,96-111.1,114.2c-17.2,42.5,4.3,50.9-33.8,108
		c-9.3-9.7-18.7-17.9-29.5-25.9c8.1-57.4,20.3-65.6,34.5-112.6c2.2-7.3,2.5-9.6-1.1-16.2c-21.6-5.8-101.8,81.7-134.6,98
		c-27.4,13.6-55,16.5-85.2,17.3c-47.9,39.6-85.3,90.5-135.9,128.2c-77.3,57.6-173,79.4-257.7,123.7c-33.4,17.4-58.2,46.9-92.2,63.9
		c7.3-9.6,15.3-19.3,20.4-30.2c12.5-26.7,17.1-60.1,38.2-81.7c24.6-25.3,69.2-36.8,101.2-50c72.5-29.8,219-89.5,264.5-151.4
		c11.1-2.3,22.6-4.2,33.3-7.8c9.9-3.3,19.1-8.8,23.6-18.4l-2.9-4.1c-0.8-0.1-118.1,19.3-130.6,21.6c-85.2,14.5-175.1,43.7-256,73.8
		c46-32.5,79.4-78.5,129.3-106.2c56.1-31.2,111.1-34.6,168-56.3c33.9-13,66-39.3,96.6-59.1c61.1-39.7,135-77.5,185.6-130.7
		c58-2.7,114-10.7,172.1-3.2c24.3,3.1,69.9,14.8,91.7,3.2l1.2-5.8c-12.9-19.1-94.8-51.5-119.3-60.2c-46.8-16.6-97.3-24.1-146.9-17.9
		c-82.7,10.4-201.9,72.6-278.8,109C2159.3,2225.2,2184.8,2177.9,2213,2134.3z M3932.8,948.5c-2.1,45-118.8,151.2-152.9,188.4
		c-0.2-1.2-0.5-2.5-0.5-3.7c-2.3-48.2,117.8-151.2,153.4-186.4C3932.7,947.4,3932.8,947.9,3932.8,948.5z M3264.8,2148.7
		c-2.2,8.7-54.3,52-63.9,62.1c-48.1,50.9-83,111.3-133.3,160.3l-2.2-2.5c29.5-70.7,137.3-172.5,197.5-221.3L3264.8,2148.7z
		 M2892.2,2306.1c-3.7,3.9-7.7,6.2-12.3,8.8l-0.5-3.7c15.6-30.7,40.7-51.4,58.4-79.7c15.7-25.1,15.2-46.8,37.2-69.7
		c8.8-0.1,15.3-1.9,22.5,3.8c0.2,1.7,0.3,2.7,0.3,4.5c0.2,11.9-6.6,22.4-12.3,32.4C2956.8,2253.6,2930.7,2267.2,2892.2,2306.1z
		 M2853.8,2308.6c7,7.7,2.9,39,2.6,49.7c-21.3,27.7-44.8,53.8-68.8,79.2l-0.7-0.6C2783.1,2414.8,2839.2,2329.5,2853.8,2308.6z
		 M2757.7,2447.8l-1.2-0.2c-0.6-2.4-0.8-2.8-0.8-5.6c-0.1-10.7,3-24,4.9-34.7c8-44.9,26.7-55,59.7-82.9l1.5,1.5
		C2794.8,2365,2776.7,2404.5,2757.7,2447.8z M2335,2580.1l-8.3-6.8c-0.1-1-0.2-2-0.2-3.1c-0.4-38.3,63.2-82.8,89.2-106.2
		c3.1,12.1-7.2,38.5-8.3,52.2c-0.9,11.2,0.9,22.2,2.7,33.2c-28.4,47.4-64.7,83-97.1,126.7l-2.2-2.5
		C2320.4,2646.6,2337.2,2609,2335,2580.1z M2417.2,2574.6c1.8,0.4,2.5,0.5,4.4,1.3c7.2,3.2,9.9,5.4,13.1,12.4
		c-36.1,39.4-33.1,42-53,88.9c-12.7,29.9-44,38.4-71.6,49.3l-7.5,2.5l-1.2-2.4C2331.8,2672.1,2383.7,2630.3,2417.2,2574.6z
		 M2251.1,2554.1l-0.3,4.3c-34.1,46.5-57.9,68.3-106.9,98.1l-7.5,2.2c1.6-8.2,93.3-93.5,106.1-105.7L2251.1,2554.1z M2126.2,2300.1
		c98.7-34.6,197.4-106.4,303.5-117.5c71.3-3.2,138.1,13.4,199.9,48.4c-83.2-12.3-189.8-14.7-269.8,13c-44.5,15.4-85,39.3-125.5,63.2
		c-53.5,33.1-90.2,47.8-151.7,61.1C2098.7,2346.7,2112.2,2323.1,2126.2,2300.1z M1836.5,2512.9c22.4-18.8,42.4-40.3,64.7-59.3
		c5.7,4,9.4,9.5,13.6,15c39.2,10.9,115.3-56.8,151.4-74.4c34.8-17,77.2-14.9,113.2-31.4c27.5-12.6,53-30.6,78.9-46.2
		c38.2-23,75.4-42.8,116.6-59.9l2.4,3c-11.5,15-219.7,147.2-247.4,158.7c-56.9,23.6-109.6,25.7-167.5,58.1
		c-43.5,24.3-72,59.4-110.5,89.1c-10.3,7.9-148.8,74-161,77.7l-0.7-3.1C1737.2,2589.9,1784.6,2556.4,1836.5,2512.9z M1692.8,2479.4
		c25.9,15.3,49.6,38.3,72.7,57.6l-24.1,23.8l-22.1,20.1c-12.5-20-24.5-40.2-35.8-60.9L1692.8,2479.4z M1679,2552.2
		c10.1,9.1,21,28.3,24.9,41.3l-5.1,7.2c-3.9,4.1-6.9,7.2-12.2,9.6l-4.2-3.5C1676.3,2590.8,1678.9,2569.2,1679,2552.2z
		 M1675.2,2459.6l3,4.7c-2.4,20-32.5,50.8-45.4,67.8c-18,23.6-36.9,47.5-51.6,73.4c-14.6,25.9-25.8,53.5-41,79.3
		c-21.3-9-41.9-21.2-62.5-32c-10.4-5.9-21.6-10.7-32.3-16C1525.4,2584,1598.9,2517.8,1675.2,2459.6z M1667.5,2632.9l-39.8,32.1
		l-1.7-1.5c-1.7-13.4,27.7-60.5,35-75.3C1665.5,2601,1665.7,2619.1,1667.5,2632.9z M1367.4,2804.3c-46-14.8-81.6-46.6-125.3-65.8
		c-3.5-32.2-8.6-60.5-18.7-91.3C1302.1,2686.9,1333.3,2724.9,1367.4,2804.3z M790.3,2452c9.2,4.6,18,10.9,26.7,16.4
		c-1.2,26.4-4,53-6.1,79.4c-20.5,17.1-35.7,39.7-51.4,61l-4.6,4.7l-3.9-2.4c-6.3-12.8-8.3-27.8-11.1-41.8
		C764.1,2530.9,779.7,2496.3,790.3,2452z M577,2512.7c10.3,6,23.3,15,35.1,16.6c18.7,2.6,34.4-13,48.2-23.6
		c-2.1,15.4-28.1,44.9-40,54.6c-7.6,6.3-18.3,14.3-28.7,12.7c-8.6-1.3-17.9-18.2-23.7-25.5c-5.8-3.9-10.1-6.4-13.2-12.9
		C558.9,2524.3,568.3,2519.4,577,2512.7z M537.9,2543.3c5.9,2.2,10.1,8.3,14.1,12.9c6.2,7.1,10.5,12.8,9.8,22.4l-9.4,2
		c-12.1-6.9-25.1-12.6-37.5-18.8L537.9,2543.3z M478.4,2676.8c-41.1-2.7-79.2-6-119-18.1c50-25.2,100.1-50.1,148.7-78
		c18.1,8.4,33.7,15.7,53.9,17c73.7,4.8,105.3-62.8,142.1-114.1c19.5-27.3,38.7-50.2,64.1-72.2c4.7,15.4,2.1,39.3-0.9,55.1
		c-16.8,88.6-83.1,105-142.1,155.5c-7,6-16.6,13.6-20.5,22.2c-2.1,4.6-1.5,5.5,0.4,9.7c18.3-0.6,92.7-57.9,117.4-71.3
		c6,18.1,6.1,55.6,16.6,69c25.6-2.6,75-78.7,93.4-100.6l1.6-32.7c14.1,21.5,26.6,44.1,39.3,66.4c-33.8,21.9-186.3,145.4-197.3,176.8
		c-2.2,6.2-3.1,7.4-0.3,13.2c6.4-1.1,12-5.1,17-9.2c15-12.3,27.6-27.7,42.3-40.4c29.1-25.2,60.4-48.2,89.8-73.2
		c11.7-9.9,22.6-24.4,36.3-30.8c9.8,2.3,12.2,7.7,18.3,15.1c-40.9,15.4-74.9,42.3-109.2,68.7c-3.5,7.6-5.4,9.2-3.5,17.5l4.9,1.8
		c24.4-7.2,88.7-57.1,118.4-73.5c16.4,14,30.8,27.2,43.5,44.8c-92.4,40.4-171,107.3-239.1,180.6
		C609.4,2827,547.2,2745.3,478.4,2676.8z M881.7,2601.5c14.2,8.5,22.7,25.9,36.8,35c62,39.9,97.5,35,128.8,111.9
		c-25.2-10.6-50.8-23.8-72.7-40.3C951.4,2690.5,893.1,2626.6,881.7,2601.5z M790.4,2928.7c-31.5-11.5-59.6-26.4-87.6-44.6
		c80.8-64.6,135.8-120.3,231.9-167.4c43.5-3.7,67,61.8,93.9,86.6c20.1,18.5,47.8,31.3,71.8,44.1c-51.7,64.1-87.2,104.9-151.2,158.1
		c-17.2-9.5-33.3-21.8-49.6-32.8C866.8,2950.3,827.3,2942.1,790.4,2928.7z M1345.2,3334c-58.2-18.8-117.4-35.8-174.9-56.8
		c-158.6-58.1-254.6-129.7-327.1-286.1c34.8,8.6,70.1,29.1,102.5,44.8c231.3,387.1,423.5,176.9,686.2,375.1
		c26.6,20.1,57.4,40.6,78.5,66.4C1593.5,3417.9,1469.8,3374.3,1345.2,3334z M1512.9,3278.8c35.3,39.5,81.1,61.6,123.5,91.8
		c39.4,28,78.8,68.2,108.3,106.5l-0.6,3.4c-136.4-127.6-205.5-160-388.7-192.3c-206-35.1-260-74.7-381.1-240.8
		c47.9,23.2,96.7,48.1,140.9,77.8c44.8,30.1,86.5,64.9,130.2,96.7c11.9,8.7,31.2,25.5,46.1,23.2l-0.4-6.5
		c-18.5-30.1-72.4-61.6-102.2-82.8c12.5-26.4,47.5-86.4,52.9-107.3c4.7-18.3-1.9-39.2-0.1-58.1c1.9-20.4,12-43.1,17.2-63.2
		c20,17,38.3,76,56.1,101.8c35.8,51.8,86.1,90.4,124.8,139.4C1467.3,3203.1,1482.8,3245.2,1512.9,3278.8z M1448.7,3148.7
		c-46-47.2-88.9-92.2-128.4-145.2c18.7,16.9,37.4,33.2,58.3,47.3c16.8,11.3,46,35.2,66.4,31.2l1.7-3.8
		c-9.6-18.8-43.8-35.1-61.4-46.3c-25-16.2-50.8-37.9-70.8-59.9c-17.7-19.5-44.3-79.9-67.5-85.8c-7.3,10-4.9,27.2-7.7,39.4
		c-4.8,20.5-17.5,41.1-18.7,62.1c-1.1,18.7,5.7,38.9,1.4,57.3c-5.2,22.4-22.8,43.2-33.8,63.3c-6.2,11.3-10.5,24.2-15,36.3
		c-56.1-50.7-128-83.5-195.3-116.4c29.3-22.3,56.5-45.1,81.4-72.2c40.8-44.4,67.4-101.1,126.3-123.9c38.6,0.4,68.9,38.7,103.5,53.5
		c54.4,23.4,109.1,27,160.8,59.3c7.7,23.1,10.8,48.4,16.5,72.2c12,49.6,33.1,97,58.6,141C1498.9,3158.8,1474.1,3154.2,1448.7,3148.7
		z M1727.9,3210.5c-38-27.1-75.6-54.6-117.8-75.2c-31.3-15.3-68.4-24.4-96.8-44.1c-17.4-40.8-29.2-81.1-38.7-124.4
		c21.8,9.8,100.1,78.3,127.4,97.5c41.8,29.3,90.2,46.4,130.1,78.9c2.2,23.7,4,47.5,5.2,71.2
		C1732.3,3214.8,1732,3213.4,1727.9,3210.5z M1908.9,3287.7c-20.1-17.9-39.3-38-55.3-59.6c173.9-86,369.8-109.1,555.1-159
		c153.7-41.3,298.1-102.2,443.4-166.2l1.4,0.8c-3.7,9.4-39.7,30-49.1,36.3c-81.8,55.2-169.2,98-259.7,136.9
		c-109.3,46.9-513,189.3-576.7,254.4C1946.4,3319.2,1927.9,3303.6,1908.9,3287.7z M2463.6,3526.1c-25.9-22.9-52.5-45.5-76.8-70.1
		c-22-22.1-41.9-52.2-68.1-69c-140.5,22.8-209.3,21-337.8-47.4c61.7-37.9,129.2-64.5,195.7-92.6c137.7-58.2,278.4-109,415.2-169
		c97.4-42.7,195.4-96.9,279.9-162c29.7-22.9,56.4-49.1,85.6-72.5c39.3-31.4,80.7-59.5,117.9-93.7c54.5-50,103.7-105.9,160.6-153.3
		c74.2-61.8,160.2-108.9,226-181.1c12.2-13.4,23.9-27.6,33.9-42.8c6.2-9.3,73.6-129,73.7-129.9c0.4-2.4-0.2-4.9-0.3-7.4l-4.9-4.2
		c-29.9,7.8-61.4,89.9-78.7,117.7c-13.3,21.4-28.2,41.7-45.8,59.7c-65.8,67.7-148.4,113.6-220.1,173.8
		c-100.9,84.8-165.5,174-283.8,248.6c-167.2,105.4-405.2,188.5-597.6,234.7c-169.5,40.7-339.8,70.9-498,148
		c-2.9-3.8-5.8-7.5-8.7-11.3c-26.4-34.4-58.1-67.9-91.5-95.5c-40.4-33.3-89.1-51.1-131.6-80.8c-61.9-43.3-115.1-104.8-182.9-139.5
		c-35.7-18.3-77.8-13.6-113.7-32.1c-30.5-15.7-70.6-58.3-104.1-61.3c-35.4-3.2-65.7,20-91.9,40.7l-34.2-27.3
		c-26.8-92-15.9-116.8-109.5-165.4c-20.7-10.7-40-20.6-55.7-38.3c-17.4-19.6-79.4-104.2-77.9-128.2c5.5-6.9,17.1-8.8,25.2-11.4
		c27.1,21.2,56.1,49.6,87.1,64.3c22-18,45.2-34.7,67.8-51.9c0.2,0.3,0.4,0.5,0.7,0.8c5.4,5.7,10.7,11.4,14.2,18.6
		c5.8,12,15.5,33.4,11.2,46.6c-5.3-1.6-9.4-1.8-14.9-1.8l-4.1,4.2c-1.1,6.7-2.5,10.8,0.4,17.3c6.1,13.6,20.9,26.4,29.2,39.5
		c11.2,17.7,18.4,37.8,27.1,56.9c15.3,33.5,57.5,75,92.6,87.2c7.5,2.6,13,3.5,20,0.2c-4.6-19.6-47.4-41.5-62.7-55.3
		c-21.1-19-43.4-58.5-44.6-87c12.4,6,18.4,36.4,23.3,48.7c3.8,9.6,7.8,15.8,17.6,19.7c5,2,5.1,1.4,10-0.7c1.6-9.4-1.6-17-4.5-25.9
		c-16.6-51.3-61.7-67.6-66.4-113.2c7.4,1.5,13,7.9,18.8,12.8c55.3,46.9,52.6,129.8,102.7,179.5c4,4,4.6,5.4,10.1,5.4
		c3.1-9.7,0.1-19.2-1.8-28.9c-1.1-2.4-2.3-4.6-3.7-6.8c-20.9-30.9-31-67.7-49.3-100.4c20.6,13.5,40.1,27.6,59.4,42.9
		c2.6,35.1,12.6,70.9,18.2,105.8c24.7,37.6,141.5,79.4,184.8,92.1c-29.4-61.3-42.5-105.3-97.9-148.7c-3.7-10.1-7.5-20.2-10.1-30.7
		c2.7-10.8,7.5-14.4,15-22.2c20.6,18.4,40.7,36.9,59.8,56.8c16.6-13.3,33.7-25.7,50.9-38.1c38.7,15,75.7,37.6,110.3,60.2
		c78.6-1.3,150.3-28.5,220-63c19.2-9.5,39.7-25.5,60-31.6c12.6-3.8,34.5-0.8,49.8-3.6c-9.2,5.5-21.1,11.4-29,18.6
		c-4.6,4.2-5.9,6.6-5.9,12.6c3,0.7,5.4,1.2,8.5,0.9c10.8-1.1,181.9-64.4,198.4-72.7c7.4-3.7,12.2-8.6,17.1-15.1
		c30.4-7.5,60.5-13.7,91.4-18.5c-63.2,55.4-167.2,97.8-245.1,130.2c-29.7,12.4-61.8,22.6-89.4,39.4c-11.5,7-21.8,14.2-29.4,25.6
		c-15.6,23.3-19.4,53.9-32.4,78.8c-8.5,16.2-24,28.5-28.4,46.7c2.3,7.4,2.4,7.1,9.1,11.3c37.1,4.5,77.4-40.8,106.3-59.5
		c55.9-36.2,119.9-52.9,180.3-78.9c24.2-10.4,45.4-27.4,69.7-37.3c28.3-11.6,57.3-16.3,83.7-32.7c27.1-16.9,55.2-40.6,76.4-64.4
		c11.2-12.5,22.7-30.9,36-40.5c9.5-6.9,24.8-11.3,35.8-15.5c-65.7,93.4-254.1,243.7-354.1,298.9c-47.2,26-97.1,44.9-148.4,60.9
		c24.6-24.6,52.1-49.7,83.3-65.3c16-8,35.9-12.3,49.9-23.3c6.1-4.8,8.3-7.2,9.1-14.8l-5.7-3.2c-38.9-0.3-102.6,47.7-129.9,72.8
		c-13.8,12.7-41,34.6-41.8,53.8l6.1,3.8c28.7,1.4,61.7-14.8,88.1-24.8c134-51,234.2-130,341.4-222.9c32.7-28.3,63.4-58.6,98-84.6
		c-9.9,41.2-24.9,82.3-37.1,122.9c-25,20.9-51,43.2-73.7,66.5c-8.3,8.6-19,18.7-18.9,31c20.1,4.1,84.4-43,104.1-53
		c19.5-9.9,40-17.5,59.6-27.2c15.8-7.8,32.7-16.5,44.1-30.4c17.4-21.1,17.8-49.6,31.7-72.5c15.8-26,44.8-42.3,59.5-69.9
		c9.2-17.2,9-39.5,17.4-56.6c3.5-7.2,19.8-10.5,27.2-13c-1.8,10.7-3.8,21.5-4.9,32.3c-2.1,19.8-10.3,92,0.7,105.7
		c2.6-0.9,5.2-2,7.7-3.1c14.4-6.4,77.2-42.8,81.7-56.9c4.2-13-6.1-31.2,8.4-67.8c0,10.2-1.1,23.8,4.3,32.6c2.9,4.7,3.4,3.7,8.4,4.9
		c16.2-8.8,27.2-36.4,33.6-52.8c4.1-10.5,13.9-33.2,8.6-43.9c-2.9-5.7-9.2-14.2-15.6-16.1c-19.5-5.7-23.1,34.5-35.7,41.1
		c-12.9-3.1-19.4-17.7-31.8-23.5c-23.4,3.5-14.8,23.8-29.9,32.6c-5.5-2.3-10.9-4.6-16.5-6.7c-19.8-7.6-32.4,1.8-50.5,9.9
		c29.2-38.7,68.8-72.3,102.6-107.3l0.4,2.1c1.9,8.9,2.9,19.9,8.1,27.6c5.9,8.7,16,13.8,26.1,15.8c40.4,8.1,86.2-20.4,117.8-42.5
		c-7.2,22.2-29.9,139.3-23.7,156.1c6.8-1.4,9.3-4.2,14-9.5c12.3-13.8,21.5-30.6,33.2-45c17.1-21.1,36.9-40.3,54.7-60.8
		c16.9-19.4,32.3-41,50.4-59.2c21.7-21.9,49.6-37.2,75.9-52.9c0.7,18.2-2.5,61.2,9.4,74.6c18-4.7,37.2-52.1,48.8-69.6
		c36.7-54.7,91.1-121.4,158.1-134.7c-69.3,61.1-169.3,182-189.6,272.9c-2.1,9.6-2.3,13.9,2.8,22.1c2.3,0.1,4.6,0.7,6.9,0.2
		c8-1.7,117.9-112.7,129-126.3c27.9-34,51-71.6,80.5-104.5c21.8-24.3,47.2-46.3,72.8-66.4c56.9-44.6,75.2-47.2,144.1-39
		c-45.1,49.8-80.8,107.2-129.7,153.1c0.6-6,1.1-12.1,1.6-18.1c1.1-13.9,4-43.3-6.7-54c-3.4-3.4-4.3-2.5-8.9-2.7
		c-23.2,11-51.3,63.8-62.9,86.9c-9.7,19.4-32.8,69.1-25.7,90.2l6.3,3.1c11.8-3.9,28-32.6,37.8-42.9c10.6-11.1,22.7-20.9,34.6-30.7
		c-1.5,17.6-21.4,112.2-20.6,115.1c1.3,4.4,2.8,4,6.5,6.1c13.5-6.2,63.6-100.2,79.9-122.5c-2.6,32.8-11.6,78.8-4.5,110.2
		c2.1,9.3,5,12.8,13,17.5c45.4-7.7,103.8-128.3,129-166.3c15.5-23.4,32.5-45.5,53.2-64.6c34-31.4,72.4-30.4,114.8-40.7
		c18.7-4.5,37.4-11.9,54.9-20c8.2-3.7,16.3-7.8,24.2-12.2c7.9-4.4,15.6-9.1,23.2-14.1c7.5-5,14.9-10.3,22-15.9
		c7.1-5.6,14-11.5,20.6-17.7c18.9-17.3,37.7-37.2,59.8-50.2c37.9-22.3,102.3-31.5,145.9-47.2c2.9,36.9-21.9,108.8-35.5,144.4
		c-27.4,11.6-55.3,22.9-80.4,38.9c-35.2,22.4-64.6,52.5-96.6,79c-29.1,24.1-60.8,45.9-91.7,67.6c-39.4,27.7-84.7,48.6-122.1,78.8
		c-31.8,25.7-52.3,62.6-85.9,87.3c-38.1,28-81.2,47.7-122.4,70.6c-59.3,33-119.3,79.1-164.5,129.9
		c-61.4,69.1-67.8,129.5-112.8,198.9c-29,44.7-74.5,82.3-115.6,115.5c-51.5,41.5-110.3,75.8-168.4,107.2
		c-68.4,36.9-235.4,102.4-276.2,163.9c-4.6,7-4.4,9.5-2.4,17.3c31.6,29.9,176.4-18.6,226.3-14.6c4.5,0.4,8.9,0.7,13.4,1.2
		c12.5,1.5,19.8,4.1,27.7,14.2c0.5,4.2,0.6,8.4-1,12.5C2754.5,3371.2,2529.5,3496.3,2463.6,3526.1z M2561.2,2564.4l3.8-0.5
		c15.6-19.3,20-71.2,26.1-96.5l19,17.7c-7.5,28.8-20,54.9-25.6,84.5c-15.2,6.5-31.3,12.1-43.3,23.9c-0.5-20.9-0.8-41.8-0.8-62.7
		c1.2-11.3,1-29.6,7.2-38.9l6.8,1.1C2572.8,2513.6,2548.6,2544.5,2561.2,2564.4z M3268.7,2298.1c-17.1,8.2-31.3,19-45.3,31.6
		l-4.9-0.3c0.9-23.1,34.6-65.9,49.7-83.4c1.6,1.6,1.5,1.4,3.2,3.9C3278.7,2261.3,3271.2,2285.4,3268.7,2298.1z M2836.4,3734
		c-29.1,12.6-58.4,24.5-88,35.8l-128.9-94.8c29.3-11,58.3-20.7,86.2-35c13.8-2.4,74.6,29.7,104.4,31.3c22.5,1.2,42.5-3.9,64-9.6
		c25.5,6.4,50.2,15.1,75.1,23.6C2911.8,3701.7,2874.1,3718,2836.4,3734z M3920.2,3044.5c-47.5,38-105,101.5-156.9,129.8
		c-27.1,14.8-74,23.3-103.8,13.4c-27.3-9-10.5-33-20.3-51.3c-18.4-3.1-120.5,49.8-147.4,60.3c-119.7,46.8-311.2,109.5-438.7,117.8
		c169.7-114.2,438.4-157.2,561.7-325.5c9.1-12.4,21.6-30.3,19-46.1l-7.4-3.5c-45.6-0.8-117.7,45.7-161.5,64.4
		c-38.1,16.3-102.4,42.8-142.6,26.7c-5.6-10.1-1-19.8-4.5-30.9c-7.8-2.7-11.8-1.7-19.6,0.8c-36.8,11.3-71.9,28.7-108.4,41
		c-61.8,21-126.1,36.6-188.7,54.9c-52.6,15.4-104.7,34.3-158.2,46c59.5-33.9,125-64.6,187.3-93.1c24.5-11.2,50.9-20,74.2-33.6
		c7.7-4.5,11.9-7.9,14.1-16.6l-3.5-4c-20.5-6-257,113.7-288.8,130.5c-15.1,7.9-55.9,25.8-60.9,41.8c3.5,6.9,8.4,8.9,15.2,12.3
		c62.5-13.2,123.5-33.8,184.9-51.4c70.8-20.2,142.9-38.3,212.7-61.5c18.9-6.3,103-44.1,115.2-40.7c3.6,9.4,5.7,17.9,15.7,22.2
		c74.3,31.5,231.3-60,301.6-86.6c-87.3,136.1-308.8,205.5-449.3,270.8c-37.3,17.4-76.9,34.7-110.5,58.6c-12,8.5-24.5,16.8-27.1,32
		c2.9,4.1,3.8,6.2,8.4,8.1c47.7,19.6,334-65.6,393.2-86.6c65.2-23.1,128.9-51.4,192.2-79c3.9,11.7,7.8,22.5,17.4,30.9
		c20.9,18.4,53.5,13.7,79.3,12.5c-25.7,14.9-51.4,30.3-77.8,44c-34.2,17.7-73,33-103,57.4c-39.5,32.1-64.3,76-107.6,105.2
		c-57.3,38.6-122.4,67.2-182.2,101.9c-45.9,26.6-89.8,56.9-135,84.6c-34.6,21.2-70.6,40.3-106.2,59.9
		c-43.3-8.5-82.9-36.2-127.1-38.4c-19.8-1-39.9,6.7-58.8,12.2c-28.9-9.2-54.4-23.8-82.4-34.4c-9.4-3.6-18.5-5.5-28.6-3.4
		c-24.8,5.3-69.5,32.9-94.7,44.5c-43.9-31.1-85.2-67.4-126.9-101.5c70.7-33.2,143.1-76.9,206.7-122.6
		c32.1-23.1,108.9-77.9,113.6-118.7c0.9-7.4-1.3-14.5-6.4-20c-37.9-40.4-166.5-4.1-217.5,3c-16.1,2.2-32.4,2.1-48.6,1.9
		c66-56.5,142.9-87.8,219.4-126.1c89.1-44.6,179.3-96.8,254.2-162.7c39.2-34.6,78.6-73.1,102.6-120.2
		c21.1-41.3,36.3-85.4,61.5-124.7c47.5-73.7,124.6-129.2,197.3-175.7c-17.9,25.1-36.9,50.5-39.7,82.3c-0.8,9-1.3,18,4.7,25.4
		c16.9,1.3,31.9-19.6,43.4-30.5c34.5-32.8,85.8-37.5,124.6-65.9c26-19,44.6-47.7,69.8-68.3l3-2.4c0,30.3-62.2,82.5-83.6,104.3
		c19.4,23.8,37.1,36,63.4,51.1l35.7-8.3c-11.5,18.4-27.4,34.7-36.7,54.3c-5.4,11.5-5.9,24.4-11.3,35.6
		c-9.5,19.5-48.4,70.1-68.9,77.5c7.1-35,78.6-108.9,75.4-155.8l-3.4-2.2c-3.6,2.7-6.7,5.8-9.4,9.5c-13.7,18.6-21.9,41.3-33.7,61.2
		c-17.5,29.6-40.2,56.8-55.8,87.4c-4,7.8-7.2,15.3-6,24.2l6.1,4.1c23.5,3.6,51.7-7.2,73.8-15.1c91.5-32.7,112.5-68.2,155.1-149.5
		c10.8-20.6,22.5-41.4,39.7-57.5c18.9-17.6,49.7-25.3,73.6-33.7c-39.9,60.1-23.9,93.1-48.3,141.1c-14.5,28.5-67.9,80.2-71.7,102
		l3.6,4.4c35.8,4,91.2-33.9,119.9-55c-2.6,14.4-9.4,36.8-3,50.6c2.2,4.8,3.7,4.6,8.3,6.1c21.2-7.6,33-31.2,44.6-49.2
		c76.1-23.4,128.5-63.9,196.7-101.5c23.8,138.1-60.8,115.6-74.5,172.1c3.3,3.1,2.4,3.4,7.5,3.3c24.5-0.7,49.6-32.7,65.7-49.9
		c15.7,35.9,33.5,63.9,60.5,92.1C4037.8,2960.9,3976.2,2999.7,3920.2,3044.5z M4129.8,2892.1c-3.9,6.8-12.1,10.8-18.6,14.9
		c-27.6-26.1-50.9-65.1-60.3-101.8c9,5.2,15.7,15.3,23,22.7c18.9,19.2,42.7,41.5,67.7,51.7c0.8,0.3,1.5,0.6,2.3,0.9
		C4141.6,2888,4136.5,2888.6,4129.8,2892.1z M4215,2831.2c-4.2,10.4-24.7,19.2-34.7,23.6c-3-3.1-1.6-2.2-4.9-4.1
		c-1.6-0.9-3.2-1.8-4.8-2.8c-46-28.1-99-80.1-111.5-133.3c11.8,7.7,23,18.9,34.3,27.6c46.3,35.8,86.8,58.7,144.2,72.4
		C4233,2823.1,4223.2,2827.1,4215,2831.2z M4293,2770.5c-13.1-9.5-31.4-16.1-45.9-24.2c-41.2-23.1-119.7-73.1-138.8-116.2
		c-3.1-13.9-4.4-27.3-5.3-41.5c-58.6-41-76.7-53.8-100.9-122.9c14.6,12.1,26,38.3,37,54.4c45.3,65.9,151.1,99.6,225.8,113.4
		c10.1-25.6-14.9-64.9-32.6-82.5c-16.9-16.8-40.2-28.9-59.4-43.1c-49.9-37.1-113.1-97.5-132.2-157.6c22.1,12.7,42.5,33.7,64.1,48.3
		c50.8,34.3,111.2,50.3,149.8,101.5c35.2,46.7,30.1,109.2,73.9,152.6c21.3,21.1,50.2,30.4,72.5,49.4c0.4,0.4,0.8,0.7,1.2,1.1
		C4389.1,2717.9,4311.4,2764,4293,2770.5z M5533.3,2039.2c-8.6,32-24.3,64.2-36.9,94.9c-15.7,38.5-30.6,78.4-51.9,114.3
		c-59.6,100.6-152.8,182.6-226.6,272.7c-105.8,129.2-201.2,266.8-313.9,390.5c-82.3,90.2-172.1,174.5-271.6,245.5
		c-157,112-335.2,192.2-507.7,276.6c-75.6,37-149.9,77.3-224.1,117.1c54.9-60.2,103.7-124.2,154.1-188
		c41.5-52.6,86.9-102.5,125.7-157.2c68.7-96.8,119.7-204.5,168.4-312.4c11.1-24.5,38.8-67.3,37.8-94.2c0.6-0.5,1.3-0.9,1.9-1.5
		c9.3-9,25.3-46.7,25.9-59.7c23-8.5,46-24.5,68-36.1c77.9-41.3,185.9-93.1,253-148.8c4.3,14.2-13.6,44.4-20.2,57.5
		c-75.8,150.8-184.3,281.5-283.5,417.1c-37.6,51.4-73,104.6-110.4,156.2c-15.6,21.6-72.9,85.9-73.2,109.1c3.7,2.6,4.4,3.3,9.1,2.4
		c17.4-3.1,78.6-48.1,96.7-60.2c146-97.8,267-226.1,366.4-370.5c34-49.4,64-101.1,95.9-151.9c85-135.4,171.4-266.9,282.2-383
		c43.4-45.4,88.8-87.4,141.6-121.7c69.3-45,245.9-122.2,288.2-179.7l5.1,3.4C5533.9,2034.2,5534,2036.5,5533.3,2039.2z
		 M5879.1,1916.2c-27.6,54.9-47.4,110.9-82.7,162.1c-48,69.6-119.7,128.1-181.5,185.6c-45.8,42.6-92,88-141,126.8l-1.3-1.2
		c51.2-66.2,93-138.1,148.1-201.6c50.9-58.8,113.6-108.3,161.4-169.2c23.4-29.8,77.2-116.4,73.1-151.4c23-7.8,52.6-29.3,70.5-46
		l5.5,2.1C5915.4,1855.1,5895.1,1884.5,5879.1,1916.2z"/>
	<path class="st0" d="M2572.8,3669.8c6.5,5.3,18.8,13,27,11.9c-1.1-7.1-3.3-8.3-8.1-13.4c3.3,0.2,5.8-0.4,9-1l1.5-4.9
		c-10.9-15.7-113-90.7-136-109.1c-28-22.5-55.2-46.1-82.6-69.3l-4,1.2c0.3,6.5,8.8,14.5,12.8,19.5c-31.9-13.3-49.4-74.7-82.7-81.1
		c3.6-2.3,6.8-5,10.1-7.7l7.6,3.3l-3.4-1.9c-1.5-0.8-3-1.6-4.4-2.4c-22.2-14-96.5,3.9-126.4,2c-11.7-0.8-21.9-6.7-33.5-8
		c-16.1-1.7-32.8,1.3-48.8-1c-48.9-7.1-105.9-37.1-150.8-57.5c-13.7-16.7-63.7-45.7-84.3-70.2c-11-13-24.4-38.5-41.4-42.6
		c-3,3-5.8,5.5-9.3,7.9c-5-4.5-9.1-9.4-13.3-14.6l-6.4-0.3c21.8,31.7,64.2,79.8,98.2,98.8c62.8,52.9,153,95.2,234.8,105.1
		c32.5,3.9,65.9,1.9,98.4-0.8c24.8-2.1,50-5,74.6-9.1c32.6,39.6,65.6,77.9,104.9,111.2c50.3,42.6,108.3,80,152.1,129.8
		C2569.7,3666.7,2571.5,3668.7,2572.8,3669.8z"/>
	<path class="st1" d="M4755,2124.4c32.1,43.9,72.8,116.2,111,150.5c3.6,3.3,7,6.7,10.4,10.3c9.8,5,17,9,28.5,8.1
		c4-2.6,5.8-2.5,7.2-7.5c6.7-23.8-32.8-58.5-18.7-108.3c9.8-34.8,66.8-70.5,40.7-106.5c-19.3-26.5-65.8-44.8-97.4-48.5
		c-11.3-1.3-22.6-0.3-33.9,0.7c-28,6.6-75.2,13.3-95.1,34.6c0.4,6.6,2.8,9.4,6.5,14.7C4726.4,2090.8,4742,2106.7,4755,2124.4z
		 M4840,2049c0.8-1.1,1.5-2.3,2.3-3.4c18.7,2.8,45.8,11.9,60.3,24.3c6.2,5.3,10.6,12.7,11,21c0.6,13.7-34.7,60.9-45.2,72.5
		c2.7,10.4,5.3,21.4-0.7,30.9c-4.7,7.5-12.4,11.1-20.9,12.6c-3.7,0.6-6.1,0.3-9.6-0.7c-4.9-6-9.4-11.9-16.2-15.9l-1.5-8.7
		c10.6-18.6,29.4-31.4,42.3-48.4c7.8-10.1,12.5-19.4,10.8-32.6c-9.4,17-51.4,55.4-69.5,61.2c-4.6-12.9,68.5-65.6,73.4-90
		c-19-0.2-66.4,54.6-87.7,66.6c-3.4-3.8-6.5-6-7.3-11.3C4777.3,2101.2,4826.4,2068.9,4840,2049z M4806.3,2044.4l10.9-0.1l0.6,2.7
		c-15.3,13.4-35.1,48.2-53.6,52.9l-10-7.4c-0.2-0.8-0.2-1.7-0.4-2.4c-3.5-10.8-16.5-19.2-25.6-25.4
		C4754.5,2059.6,4779.8,2049.7,4806.3,2044.4z"/>
	<path class="st0" d="M4820.9,2190.4c6.8,4,11.3,9.8,16.2,15.9c3.5,1,5.9,1.3,9.6,0.7c8.5-1.5,16.2-5.1,20.9-12.6
		c6-9.6,3.4-20.6,0.7-30.9l-4.3-1C4854.5,2169.2,4830.3,2186.9,4820.9,2190.4z"/>
	<path class="st1" d="M3649.9,883.2c4.7-0.8,8.9-1.3,13.1-3.7c61.8-29.2,129.9-51.9,187.7-88.3c-3.3-19.9-17.8-146.3-27.2-153.6
		c-2-1.6-3.1-2-5.3-3c-7.9,22.2-16.8,44.4-31.8,63c-25.7,32.2-159.7,138.3-141.8,181.3L3649.9,883.2z M3812.7,699
		c9.1,9,11.6,67.1,14.5,83.3c-47.7,23-96,44.6-144.9,64.8l-7.4,1.4l-0.7-3.9C3704.4,796.5,3773,746.1,3812.7,699z"/>
	<path class="st1" d="M3490.5,1236.7c-17.6,31.1-49.9,77.8-50.2,114.2c3,4.9,5.1,6.4,10,9.3c8.3-15.4,15.4-30.8,21.8-47.1
		c96.5-53.3,164.8-149.6,195-255.2c2.1-7.2,3.4-12.9,2-20.3c-2.4-2.4-4.9-5.7-7.7-7.6c-53,34-158.4,106.7-171.5,171.3
		C3487.6,1212.4,3489.6,1225.5,3490.5,1236.7z M3639.5,1069.9l0.8,0.7c1.4,9.7-7.7,25.4-11.7,34.8c-39.1,21-73.6,56.8-108.6,84.3
		c-0.7-0.5-0.8-3.4-1-4.3C3548.2,1141.7,3596.1,1099.3,3639.5,1069.9z M3597.3,1151.2l1.1,3.3c-12.8,14.2-27,28.6-37.3,44.8
		c-10.3,16.1-17.2,34.6-30.1,48.9c-10.2,11.2-25.1,20.7-37.3,29.9l-3.5,0.5c-1.7-9.6,23-53.9,27.3-67.5
		C3546.5,1197.6,3573.3,1172,3597.3,1151.2z"/>
	<path class="st1" d="M3283,1917c58.3-12.3,107.1-45.9,163-64.5c45.8-15.3,92.7-19.1,139.5-29.6c87.8-19.6,189.6-72.7,241.1-148.4
		c2.3-3.4,3.3-6.5,4.3-10.4c-2.9-7-4.1-7.5-11-10.6c-0.3-0.1-0.6-0.2-0.9-0.3c-28.4,27.8-57.3,59.6-92.1,79.1
		c-45.6,25.6-111.9,21.9-163.2,28.2c-42.3,5.2-84.6,14.5-123.3,32.7c-52.5,24.6-84.4,65.4-129.5,98.8c-11.7,1.6-32.5,2.4-41,11.7
		c-1.6,1.7-1.2,2.3-1.7,4.9C3273.2,1913.1,3276.7,1914.8,3283,1917z M3388.9,1851c89.3-71.2,176.1-72.3,283.7-83.6l3.1,1.2
		c-59.7,33.1-123.3,37-188.1,51.8c-34.1,7.8-65.5,19.7-97.7,33.4l-1.4,0.1L3388.9,1851z"/>
	<path class="st1" d="M3274.5,1432.1c14.5,43.4,24.8,85.8,32.1,131c3.7,8.4,6.5,18.4,14.2,23.9c9.3-5.9,50.7-112.8,54.9-131.6
		c7.3-32.1,4.2-65.5,8.1-98c6.4-53.9,32.5-107.8,54.7-157c11.2-24.7,94-153.1,93.8-164.5l-7.2-6.6
		c-61.8,44.5-199.9,175.7-214.4,247.6c-3.6,17.6,3.2,37.7,2.4,55.8C3311.3,1369.2,3287.2,1399.1,3274.5,1432.1z M3361.6,1427.2
		c-14.3,21.6-32,42-48,62.5c-1.8-4.7-3.8-9.6-4.7-14.6c-5.1-27,37-79.2,52.5-102.5l2,2.1C3367.8,1389.2,3362.8,1412,3361.6,1427.2z
		 M3470.7,1102.7c-0.3,9.2-14.9,28.7-19.7,37.5c-12.7,23.5-23.9,52-39.8,73.3c-20.1,27-55.8,49.1-80.6,73c-0.1-1.3-0.2-2.7-0.2-4
		C3329.2,1231.3,3432.8,1138.3,3470.7,1102.7z M3329.6,1352.9c3.2-12.8,2.7-27.1,2.8-40.2c18.3-17.6,36.3-35.9,56.9-50.8
		c4,24.9-71.5,151.8-87.4,179.1C3293.9,1422.6,3324,1375,3329.6,1352.9z"/>
</g>
</svg>
